<svg id="Layer_1" data-name="Layer 1" xmlns="http://www.w3.org/2000/svg" viewBox="0 0 254 261"><defs><style>.cls-1{fill:#eeeff3;}</style></defs><title>Artboard 5</title><path class="cls-1" d="M59.49,241.33a3.47,3.47,0,0,1-.57-1.16,3.91,3.91,0,0,1-.13-1.21,6.08,6.08,0,0,1,.16-1.23,9.32,9.32,0,0,1,.75-2.08l.38-.7a1.92,1.92,0,0,0,.16-.29.41.41,0,0,1,0-.09c.36-.76,1.24-2.38,2.64-4.84s2.53-4.37,3.39-5.69l.09-.15.11-.17c.24-.37.5-.47.78-.28s.48.55.26.89l-.09.15-.14.15q-1.6,2.48-3.61,6T61,235.75a13.4,13.4,0,0,0-.77,2.24,7,7,0,0,0-.23,1.43,3,3,0,0,0,.21,1.19,2.09,2.09,0,0,0,.76,1,2.55,2.55,0,0,0,1,.38,1.62,1.62,0,0,0,.86-.07,2.17,2.17,0,0,0,.72-.4,3.63,3.63,0,0,0,.62-.62,8,8,0,0,0,.48-.68l1.58-2.44q1-1.62,2.48-4.06l1.65-2.81L71.4,229c.46-.83.83-1.46,1.1-1.87a.48.48,0,0,1,.4-.25.75.75,0,0,1,.48.12.68.68,0,0,1,.29.38.52.52,0,0,1-.08.46l-1,1.62c-.46.71-.87,1.36-1.22,1.94l-1.24,1.92c-.9,1.39-1.66,2.61-2.3,3.67s-1.42,2.25-2.27,3.56a8.67,8.67,0,0,1-.66.91,5,5,0,0,1-.78.71,3.22,3.22,0,0,1-1,.56,2.76,2.76,0,0,1-1.16.09,3.75,3.75,0,0,1-1.33-.53A4.11,4.11,0,0,1,59.49,241.33Z"/><path class="cls-1" d="M77.12,250.85a1.3,1.3,0,0,1,0-.19,1.43,1.43,0,0,1,0-.51,1.22,1.22,0,0,0,0-.38l.06-.05a13.82,13.82,0,0,0,.23-3.13l0-1.46a8.94,8.94,0,0,1,0-1.44l0-.67c.2-5.12.16-8-.14-8.54a4.94,4.94,0,0,0-1,1.5c-.17.35-.31.66-.41.93l-.4.91-.29.54c-.1.16-.19.34-.29.54a5.29,5.29,0,0,0-.35.9l-.29.76-.09,0a22,22,0,0,0-1.8,4.33l-1,2.07a.92.92,0,0,1-.1.54.47.47,0,0,1-.32.24.73.73,0,0,1-.48,0c-.42-.2-.44-.72,0-1.55l.41-.7a5,5,0,0,0,.42-.73c.35-.74.85-1.86,1.48-3.36s1.13-2.61,1.48-3.35c.21-.44.57-1.11,1.06-2s.84-1.54,1-2l.15-.3c.35-.75.77-1.16,1.24-1.21l.06.11.32.09a1.05,1.05,0,0,1,.21.27.29.29,0,0,1,0,.27v.16a.25.25,0,0,0,0,.13,26.36,26.36,0,0,0,0,5.61c.17,2.61.23,4.33.2,5.13-.06.64-.12,1.19-.19,1.66a10.59,10.59,0,0,0-.07,3.66l.09,0A105.68,105.68,0,0,0,85,237.32l.1-.29a1.52,1.52,0,0,1,.11-.32c.15-.32.37-.41.65-.28a.77.77,0,0,1,.35,1L85.46,239l-.24.12q-1,2.18-3.73,7t-3.21,5.13l-.56-.16v0l0,0-.33-.08Z"/><path class="cls-1" d="M86.47,253.86c.28-1.14.69-2.56,1.24-4.25.35-1.07.67-2,1-2.85l1-2.84c.4-1.23.84-2.76,1.35-4.59a.59.59,0,0,1-.13-.58c0-.11.16-.2.38-.26a1,1,0,0,1,.55,0,.83.83,0,0,1,.42.35l.28.34a4.28,4.28,0,0,0,.69.38,4.34,4.34,0,0,1,.71.39,7.23,7.23,0,0,1,1,1.16,9.34,9.34,0,0,0,.82,1.07l0,0A2.41,2.41,0,0,0,96,243a5.78,5.78,0,0,1,.36.87,7.16,7.16,0,0,1-.43,3,3.75,3.75,0,0,1-.21.55l-.19.58-.06.19-.11.24a1.34,1.34,0,0,0,0,.78c-.29.48-.77,1.4-1.42,2.78a9.15,9.15,0,0,1-.75,1.22,4.69,4.69,0,0,1-.92,1,6.59,6.59,0,0,1-3.42,1.11l-2.23-.72C86.35,254.54,86.33,254.3,86.47,253.86Zm2.38.72a4,4,0,0,1,.51-.18l.27-.05.3-.09c1.82-.53,3.19-2.23,4.12-5.08l.15-.46a2.41,2.41,0,0,1,.1-.43l.66-2.48a6.09,6.09,0,0,0-.17-3.27,3.94,3.94,0,0,0-.89-1.64,3.51,3.51,0,0,0-1.55-1q-.39-.12-1.84,4.35c-1.12,3.45-2,6.51-2.54,9.15l-.18.45.11.09,0,.34Z"/><path class="cls-1" d="M99.08,257.89l.07-.32a1.39,1.39,0,0,0,.1-.29l-.11-.13a2.29,2.29,0,0,0,.48-1c.09-.38.17-.94.26-1.66l.3-1.66c.18-.82.48-2.06.91-3.7.41-1.46.73-2.7,1-3.73l.26-1.5c.06-.46.14-1,.26-1.51a.61.61,0,0,1,.35-.48,1.23,1.23,0,0,1,.75,0,.87.87,0,0,1,.49.27l.93.3a10.49,10.49,0,0,1,1.36.53q.59.28.54.51c0,.17-.28.29-.73.36a13.94,13.94,0,0,0-2.55-1l-.2.12a8.48,8.48,0,0,1-.2,1.07c-.15.71-.31,1.35-.48,1.9s-.3,1.22-.46,1.93c-.1.47,0,.73.31.8l.53.09a4.15,4.15,0,0,1,.56.1c.85.18,1.24.42,1.18.72a.7.7,0,0,1-.27.43.62.62,0,0,1-.53.07,1.29,1.29,0,0,1-.71-.36l-1-.35-.17,0-.19.09,0,.07a16,16,0,0,1-.36,2c-.14.65-.28,1.24-.42,1.76l-.42,1.76c-.14.64-.25,1.32-.33,2a.93.93,0,0,0,.16.83,2.25,2.25,0,0,0,1,.42l.59.1.66.12c.63.14.93.32.88.53s-.58.35-1.54.14l-2.68-.59A.59.59,0,0,1,99.08,257.89Z"/><path class="cls-1" d="M114.41,261a4.29,4.29,0,0,1-.64-1.85c-.19-1-.35-2.08-.46-3.29a18.53,18.53,0,0,0-.41-2.95c-.15-.88-.36-1.33-.6-1.36l-.1,0q-.74-.09-.78.27-.23,1.81-.43,5.56a13.16,13.16,0,0,0,0,2.69l-.32.39-.46-.06-.24-.23q.94-11.73,1.48-16a1.48,1.48,0,0,1,.11-.45.7.7,0,0,1,.25-.3.55.55,0,0,1,.49-.12,5.21,5.21,0,0,1,2.65,1,2,2,0,0,1,.8,1.94l-.24,1.85a3,3,0,0,1-.58,1.23,11.68,11.68,0,0,1-1.1,1.38l-.51.57c.14.89.42,2.5.86,4.82s.68,3.55.73,3.69a.58.58,0,0,1,.07.14,1.72,1.72,0,0,0,.17.33,1.14,1.14,0,0,1,.16.63.32.32,0,0,1-.41.31Zm-1.5-10.5a3.49,3.49,0,0,0,1-1.14,8.34,8.34,0,0,0,.84-2.38,4.83,4.83,0,0,0,0-1,4.1,4.1,0,0,0-.18-.84c-.19-.63-.79-1-1.78-1.13a.33.33,0,0,0-.3.18,1.16,1.16,0,0,0-.15.43c-.14,1.13-.25,2.15-.32,3.06s-.21,1.94-.36,3.06l.06.06A1.63,1.63,0,0,0,112.91,250.52Z"/><path class="cls-1" d="M130.44,261l-.06-.94c0-.27,0-.57-.06-.91a2.54,2.54,0,0,1,0-.43l0-.46a2.07,2.07,0,0,0-.15-.61c0-1.14-.2-3.24-.5-6.32s-.48-5-.53-6.07c-1.39,0-2.31,0-2.78,0s-.68-.2-.68-.39a.69.69,0,0,1,.63-.29c.66,0,1.64,0,2.91,0s2.14.07,2.92.05l.7,0,.7,0c.4,0,.61.1.61.32s-.06.18-.21.24a1.15,1.15,0,0,1-.52.1c-.44,0-.91,0-1.4,0h-1.44c-.09,0-.14,0-.13.08a1.57,1.57,0,0,0,0,.48q.08,2.48.6,7.47.51,5.18.57,7.44c0,.12-.09.23-.28.34a1.21,1.21,0,0,1-.55.17Z"/><path class="cls-1" d="M145.17,260.16q-.75-4.65-1-6.75l-.12-.09.11-.24a3.61,3.61,0,0,0-.25-.92l-.51,0a2.46,2.46,0,0,1-.66.16,8.21,8.21,0,0,1-1.11,0,4.59,4.59,0,0,0-1.05,0l-.35.15c.08.59.13,1.12.17,1.59s.09,1,.17,1.6l.07.09c.06.47.19,1.17.37,2.11s.31,1.61.37,2.08a.84.84,0,0,1-.08.48.45.45,0,0,1-.37.24c-.49.06-.8-.41-.93-1.42s-.19-1.63-.25-2.33l-.26-2.3a13.61,13.61,0,0,0-.41-2.46,4.53,4.53,0,0,0,0-1.69c-.1-.81-.27-1.78-.5-2.93l-.19-1-.31-2a.41.41,0,0,1,.12-.35.62.62,0,0,1,.38-.2c.44-.06.73.4.85,1.38.14,1.14.26,2.18.36,3.11s.18,2,.31,3.06c0,.2.88.2,2.57,0l.13,0a1.76,1.76,0,0,0,.89-.3.74.74,0,0,0,.2-.68,31.73,31.73,0,0,0-.67-3.46c-.33-1.53-.54-2.68-.64-3.46a.31.31,0,0,1,.14-.28.67.67,0,0,1,.38-.17l.31,0a.7.7,0,0,1,.31,0q.24,2,.94,5.86t.94,5.88a46.79,46.79,0,0,0,.86,5l-.2.3C146.18,260.12,145.84,260.07,145.17,260.16Zm-2.24-9,.07,0h-.07Z"/><path class="cls-1" d="M152.84,258.59l-.07-.32a.81.81,0,0,0,0-.3l-.15-.07a2.34,2.34,0,0,0,0-1.08,16.23,16.23,0,0,0-.46-1.62l-.42-1.62c-.19-.83-.43-2.08-.73-3.75-.24-1.5-.47-2.75-.7-3.78l-.39-1.48a14,14,0,0,1-.4-1.47.64.64,0,0,1,.11-.59,1.31,1.31,0,0,1,.69-.32.84.84,0,0,1,.55,0,9.46,9.46,0,0,0,1-.11,8.64,8.64,0,0,1,1.46-.08c.43,0,.67.08.7.23s-.13.38-.51.64a12.63,12.63,0,0,0-2.75.11l-.13.18c0,.15.14.5.27,1.07s.27,1.35.35,1.92.24,1.24.4,1.95c.1.46.3.66.61.59l.52-.14.55-.15c.85-.18,1.31-.13,1.37.17a.71.71,0,0,1-.06.5.65.65,0,0,1-.45.29,1.28,1.28,0,0,1-.79,0l-1.08.1-.16,0-.14.16,0,.08c.1.27.27.92.5,1.94.14.65.26,1.24.35,1.77l.36,1.78c.15.64.32,1.3.54,2,.11.38.27.61.49.69a2.31,2.31,0,0,0,1.12-.05l.59-.16c.19-.06.41-.12.65-.17.63-.14,1-.1,1,.11s-.38.56-1.33.77l-2.69.59A.58.58,0,0,1,152.84,258.59Z"/><path class="cls-1" d="M170.65,254.33a3.51,3.51,0,0,1-.7.09,1.23,1.23,0,0,1-.71-.19c-.08-.19,0-.33.23-.41a3,3,0,0,1,.94-.17,2.6,2.6,0,0,0,.92-.13,2.22,2.22,0,0,0,1.1-.91,2.94,2.94,0,0,0,.47-1.46,6.25,6.25,0,0,0-.29-2.64,7.15,7.15,0,0,0-1.33-2.19,10.39,10.39,0,0,0-2-1.79c-.17-.14-.45-.33-.83-.58q-1.23-.9-1.89-1.41a9.51,9.51,0,0,1-1.28-1.2A6.22,6.22,0,0,1,164,239.2a3.93,3.93,0,0,1-.25-1.63,3.39,3.39,0,0,1,.58-1.65,3.18,3.18,0,0,1,1.54-1.21,2.44,2.44,0,0,1,1-.12c.41,0,.64.09.7.24a.18.18,0,0,1-.12.26,1.81,1.81,0,0,1-.54.07,1.48,1.48,0,0,0-.58.08,2.25,2.25,0,0,0-1.12.89,2.49,2.49,0,0,0-.41,1.3,2.89,2.89,0,0,0,.19,1.18,6.67,6.67,0,0,0,1,1.79,8.57,8.57,0,0,0,1.55,1.52l1.75,1.32.51.38c.7.52,1.25.95,1.66,1.31a8.46,8.46,0,0,1,1.18,1.26,8,8,0,0,1,1.16,2,5.4,5.4,0,0,1,.12,3.16,3.77,3.77,0,0,1-.82,1.6,3.91,3.91,0,0,1-1.56,1.08A8.67,8.67,0,0,1,170.65,254.33Z"/><path class="cls-1" d="M183,248.13l-.45-.83c-.14-.23-.28-.5-.43-.81a1.75,1.75,0,0,1-.16-.4l-.17-.43a2,2,0,0,0-.39-.48c-.51-1-1.54-2.87-3.11-5.54s-2.52-4.34-3-5.29c-1.25.61-2.09,1-2.53,1.16s-.7.1-.78-.07a.67.67,0,0,1,.44-.53c.61-.3,1.49-.7,2.66-1.2s2-.83,2.67-1.17l.63-.31.62-.34q.54-.25.69,0a.29.29,0,0,1-.09.32,1.43,1.43,0,0,1-.42.31c-.41.19-.83.39-1.29.57l-1.31.59c-.08,0-.11.08-.09.13a1.58,1.58,0,0,0,.18.45c.73,1.48,2,3.65,3.67,6.53s3,5.17,3.63,6.52c0,.11,0,.25-.11.43a1.27,1.27,0,0,1-.43.38Z"/><path class="cls-1" d="M197,240.86h-.16q-.17,0-.42-.3l-1.53-1.77-.68-.78a10.28,10.28,0,0,0-1.49.78l-1.05.59a10.48,10.48,0,0,0-1,.55c-.11.07-.16.15-.13.23s0,.07,0,.08l.21.47a14.45,14.45,0,0,1,.65,1.75,3.65,3.65,0,0,1,.22,1.12c0,.34-.07.55-.2.63a.82.82,0,0,1-.44.11.38.38,0,0,1-.36-.12V244a36.21,36.21,0,0,0-1-3.58l-.49-1.55L188.4,237l-.57-1.62c-.14-.44-.36-1.18-.65-2.2s-.59-1.91-.76-2.31A8.87,8.87,0,0,0,186,230c-.26-.59-.45-1-.55-1.33a1.9,1.9,0,0,1-.23-.76l.2-.12.21-.1a1,1,0,0,0,.43-.45.79.79,0,0,1,.42-.12.3.3,0,0,1,.29.13,19.19,19.19,0,0,0,1.68,2.25l.88,1q2,2.61,8.07,9.49l0,.06a.43.43,0,0,1,0,.47Zm-3.29-3.34q-2.22-2.94-6.78-8.53l2,6.73a20.24,20.24,0,0,0,1.29,3.54c0,.07.44-.09,1.2-.47s1.41-.76,2-1.1Z"/><path class="cls-1" d="M206.39,234.18a4.19,4.19,0,0,1-1.75-.87,32.49,32.49,0,0,1-2.63-2,18.49,18.49,0,0,0-2.36-1.82c-.72-.51-1.18-.7-1.38-.55l-.08.06c-.39.3-.51.54-.37.73.74,1,1.93,2.4,3.58,4.28a12.34,12.34,0,0,0,1.86,1.94l.05.51-.38.28h-.33q-7.54-9-10.12-12.44a1.79,1.79,0,0,1-.24-.39.87.87,0,0,1,0-.4.54.54,0,0,1,.27-.42,5.2,5.2,0,0,1,2.57-1.16,2.05,2.05,0,0,1,1.94.83l1.12,1.48a3.27,3.27,0,0,1,.45,1.29,11.9,11.9,0,0,1,.17,1.75l0,.77q1.08.81,4,2.84c1.94,1.35,3,2.06,3.11,2.13a.32.32,0,0,1,.15,0,1.83,1.83,0,0,0,.35.11,1.17,1.17,0,0,1,.56.35.31.31,0,0,1-.08.5ZM198,227.74a3.47,3.47,0,0,0-.12-1.48,8.1,8.1,0,0,0-1.06-2.29,5.48,5.48,0,0,0-.65-.72,4.09,4.09,0,0,0-.72-.48c-.57-.31-1.26-.16-2.06.45a.29.29,0,0,0-.08.33.9.9,0,0,0,.19.42c.68.9,1.32,1.71,1.91,2.41s1.2,1.53,1.89,2.43h.08A1.59,1.59,0,0,0,198,227.74Z"/><path class="cls-1" d="M211,230.08a.57.57,0,0,1-.54,0v-.26a4.17,4.17,0,0,1,.49-.35,3,3,0,0,0,.52-.33,2,2,0,0,0,.67-1.21,2.86,2.86,0,0,0-.13-1.44,7.6,7.6,0,0,0-1.32-2.16,6.75,6.75,0,0,0-3.57-1.86c-.95-.18-1.7-.35-2.24-.48a8.37,8.37,0,0,1-1.68-.61,5.26,5.26,0,0,1-1.67-1.2,5.11,5.11,0,0,1-1-2,2.64,2.64,0,0,1,0-1.28,2.13,2.13,0,0,1,.64-1.08,1.91,1.91,0,0,1,.79-.4c.31-.07.52,0,.63.08s0,.25-.19.44a.82.82,0,0,1-.3.17,1.08,1.08,0,0,0-.32.19,1.51,1.51,0,0,0-.47.83,2,2,0,0,0,.08,1,4.45,4.45,0,0,0,.87,1.56,2.94,2.94,0,0,0,.79.62l.22.15a.31.31,0,0,1,.12.09l.49.24.43.23.51.16.38.09.34.05.65.13c.14,0,.44.06.91.15a12.15,12.15,0,0,1,1.41.36,5.37,5.37,0,0,1,1,.41,8.48,8.48,0,0,1,1,.64,9,9,0,0,1,1,1,5.89,5.89,0,0,1,1.21,2,3.48,3.48,0,0,1-.1,2.49,3.32,3.32,0,0,1-.89,1.21l-.09.15A2,2,0,0,1,211,230.08Zm-8.47-14.41s0,0,0,0l0,0Z"/><path class="cls-1" d="M45.05,223.36A126.5,126.5,0,0,1,116.81.91,126.5,126.5,0,0,1,223.36,209l-.76-.65A125.5,125.5,0,0,0,116.89,1.91,125.5,125.5,0,0,0,45.7,222.6Z"/><path class="cls-1" d="M127.5,25A102.5,102.5,0,1,0,230,127.5,102.5,102.5,0,0,0,127.5,25ZM70.34,131.33a11,11,0,0,1-5.53,9.53A16.46,16.46,0,0,0,66.26,146a16.17,16.17,0,0,0-3-4.37,11,11,0,0,1-13.43-4.82,16.48,16.48,0,0,0-5.11,1.45,16.14,16.14,0,0,0,4.37-3,11,11,0,0,1,4.82-13.43,16,16,0,0,0-1.45-5.12,16.29,16.29,0,0,0,3,4.38,10.94,10.94,0,0,1,13.41,4.81A16.06,16.06,0,0,0,74,124.41a16.09,16.09,0,0,0-4.38,3A11.09,11.09,0,0,1,70.34,131.33ZM91.92,118.7A33.06,33.06,0,0,0,58,86.56,33.06,33.06,0,0,0,90.11,52.61a33.06,33.06,0,0,0,34,32.14A33.06,33.06,0,0,0,91.92,118.7ZM146.06,75a15.57,15.57,0,0,0-20.73-7.44,15.57,15.57,0,0,0,7.44-20.73,15.57,15.57,0,0,0,20.73,7.44A15.57,15.57,0,0,0,146.06,75Z"/></svg>