<?xml version="1.0" standalone="no"?>
<!DOCTYPE svg PUBLIC "-//W3C//DTD SVG 20010904//EN"
 "http://www.w3.org/TR/2001/REC-SVG-20010904/DTD/svg10.dtd">
<svg version="1.0" xmlns="http://www.w3.org/2000/svg"
 width="1004.000000pt" height="1004.000000pt" viewBox="0 0 1004.000000 1004.000000"
 preserveAspectRatio="xMidYMid meet">
<metadata>
Created by potrace 1.11, written by Peter Selinger 2001-2013
</metadata>
<g transform="translate(0.000000,1004.000000) scale(0.100000,-0.100000)"
fill="#000000" stroke="none">
<path d="M4739 9776 c-2 -2 -51 -6 -109 -10 -58 -3 -116 -8 -130 -10 -14 -3
-49 -7 -78 -10 -385 -43 -825 -159 -1247 -329 -144 -58 -510 -242 -630 -318
-46 -29 -295 -194 -341 -226 -171 -120 -395 -312 -589 -507 -565 -567 -971
-1251 -1201 -2019 -20 -66 -37 -127 -39 -136 -2 -9 -10 -43 -18 -76 -20 -75
-74 -345 -82 -405 -3 -25 -8 -52 -10 -60 -2 -8 -6 -44 -10 -80 -4 -36 -8 -78
-10 -95 -27 -213 -27 -858 -1 -1015 6 -32 15 -103 22 -160 4 -40 24 -159 40
-245 90 -490 301 -1048 565 -1497 289 -492 630 -893 1094 -1287 67 -56 294
-225 390 -288 165 -110 342 -212 532 -305 199 -99 221 -109 348 -158 44 -17
89 -35 100 -40 50 -23 340 -114 478 -150 211 -54 456 -99 627 -116 30 -3 61
-7 69 -10 79 -26 808 -25 1006 1 17 2 50 6 75 9 25 3 65 8 90 11 25 3 56 7 70
10 14 3 41 7 60 10 286 46 739 172 965 270 17 7 75 32 130 55 453 192 909 484
1304 835 81 71 314 307 386 390 43 50 91 105 107 122 115 131 349 468 463 668
99 172 295 581 309 645 2 7 57 152 67 175 5 11 29 88 54 171 61 205 95 348
140 594 9 48 21 134 29 205 3 28 9 71 12 97 17 138 21 273 18 558 -2 173 -6
331 -8 350 -2 19 -7 64 -10 100 -4 36 -9 76 -11 90 -3 14 -7 45 -10 70 -38
325 -191 882 -323 1173 -17 37 -29 67 -27 67 7 0 -183 377 -240 475 -107 187
-394 602 -449 650 -6 6 -31 35 -56 65 -74 91 -118 138 -280 300 -678 676
-1544 1133 -2485 1309 -60 12 -128 23 -150 26 -22 3 -69 10 -105 15 -67 10
-145 18 -240 27 -64 6 -656 14 -661 9z m581 -406 c85 -6 169 -12 185 -15 17
-2 67 -9 112 -15 45 -6 92 -13 105 -16 13 -2 39 -6 58 -9 19 -2 35 -4 35 -5 0
-1 11 -3 25 -6 295 -49 810 -219 1051 -345 20 -10 39 -16 43 -12 3 3 6 2 6 -4
0 -6 15 -17 33 -24 17 -7 53 -25 79 -40 25 -15 48 -25 51 -23 2 2 10 -2 17
-11 7 -8 16 -15 20 -15 13 0 265 -155 351 -215 42 -30 80 -52 83 -49 3 2 4 1
1 -3 -3 -3 12 -18 33 -31 32 -22 217 -168 248 -197 7 -5 40 -35 75 -66 35 -31
89 -81 119 -110 30 -29 58 -52 63 -51 4 1 7 -2 7 -7 0 -13 91 -106 101 -103 5
1 8 -2 7 -6 -2 -5 17 -31 42 -59 59 -66 86 -97 140 -163 25 -30 47 -57 50 -60
3 -3 30 -39 60 -80 30 -41 57 -77 60 -80 6 -6 124 -184 172 -260 98 -155 255
-463 323 -635 16 -38 32 -72 37 -73 4 -2 6 -8 3 -13 -3 -5 0 -19 7 -31 6 -13
13 -29 14 -35 2 -14 31 -97 45 -128 9 -21 69 -228 74 -258 2 -9 7 -22 10 -28
4 -5 8 -20 10 -32 2 -12 13 -67 24 -122 26 -118 67 -367 75 -445 13 -131 16
-170 21 -255 35 -603 -64 -1246 -276 -1798 -28 -73 -51 -136 -52 -142 -1 -5
-4 -12 -7 -15 -3 -3 -19 -34 -34 -70 -28 -64 -129 -271 -147 -300 -5 -8 -34
-60 -65 -115 -31 -55 -63 -108 -72 -117 -8 -10 -11 -18 -6 -18 5 0 4 -4 -2 -8
-16 -11 -59 -86 -56 -97 2 -5 0 -7 -4 -3 -6 7 -38 -34 -42 -54 -1 -5 -10 -17
-19 -27 -20 -22 -21 -23 -82 -106 -25 -33 -71 -92 -102 -131 -32 -39 -55 -75
-51 -79 4 -5 1 -5 -5 -1 -7 4 -13 4 -13 -1 0 -4 -21 -30 -46 -58 -25 -27 -61
-67 -80 -87 -19 -20 -34 -42 -34 -48 0 -5 -3 -9 -8 -8 -12 4 -82 -69 -74 -77
4 -4 2 -5 -3 -3 -14 4 -91 -73 -87 -87 2 -5 0 -7 -4 -3 -9 10 -110 -83 -106
-97 2 -5 1 -7 -3 -3 -4 4 -49 -28 -99 -70 -51 -42 -108 -88 -126 -102 -19 -14
-42 -33 -52 -43 -10 -9 -20 -17 -23 -17 -7 0 -179 -123 -186 -133 -3 -5 -10
-9 -15 -9 -13 -1 -88 -50 -92 -60 -2 -4 -7 -6 -12 -3 -4 2 -19 -5 -32 -18 -14
-12 -31 -23 -38 -25 -8 -2 -43 -20 -79 -42 -69 -40 -270 -141 -356 -180 -93
-41 -110 -48 -202 -84 -51 -20 -97 -36 -103 -36 -5 0 -10 -4 -10 -8 0 -4 -8
-8 -18 -9 -9 -1 -51 -13 -92 -27 -204 -69 -554 -151 -730 -172 -30 -3 -57 -7
-60 -9 -3 -2 -41 -6 -84 -10 -44 -3 -93 -8 -110 -10 -127 -16 -490 -22 -641
-10 -152 11 -287 24 -355 35 -30 5 -72 11 -93 14 -95 15 -114 18 -147 26 -19
5 -52 11 -72 14 -21 2 -41 7 -46 10 -5 3 -19 7 -33 10 -13 2 -44 9 -69 15 -25
7 -52 13 -60 15 -61 15 -245 72 -311 96 -43 16 -80 30 -82 30 -9 0 -92 34
-217 88 -80 34 -149 64 -155 65 -5 1 -12 4 -15 7 -3 3 -41 24 -85 46 -153 77
-541 313 -565 344 -3 3 -21 17 -40 30 -32 21 -218 169 -246 195 -91 82 -149
129 -156 127 -5 -1 -7 2 -4 6 6 9 -51 62 -66 62 -4 0 -7 4 -6 8 4 10 -74 88
-84 84 -5 -1 -8 2 -8 6 0 16 -37 52 -44 44 -4 -4 -6 -2 -4 4 4 13 -82 110 -94
106 -5 -1 -7 1 -4 6 2 4 -8 22 -22 38 -65 75 -172 209 -202 254 -8 12 -29 41
-47 65 -91 120 -238 365 -330 549 -31 61 -60 113 -65 114 -4 2 -6 7 -3 12 2 4
-8 34 -24 66 -15 33 -48 109 -72 169 -24 61 -47 112 -52 113 -4 2 -5 7 -2 12
5 7 -13 62 -48 150 -5 14 -11 38 -13 53 -2 16 -8 36 -14 46 -26 50 -114 448
-139 631 -16 120 -20 151 -26 246 -4 49 -8 107 -11 129 -5 54 -5 450 1 500 2
22 6 74 10 115 13 166 32 312 61 462 9 46 18 92 20 103 24 142 163 585 229
730 8 16 26 59 41 95 32 79 169 355 193 390 20 29 35 62 33 73 -1 4 2 7 7 7 5
0 23 25 41 56 27 48 183 284 210 317 5 7 38 48 72 92 35 44 67 85 73 91 5 6
28 33 50 59 55 67 119 137 190 209 33 33 59 65 57 71 -2 5 -1 7 3 3 4 -4 35
21 68 54 34 33 86 81 116 107 30 25 59 51 65 56 6 6 45 38 86 70 41 33 77 63
80 66 3 3 64 47 135 98 72 51 138 99 148 107 9 7 17 11 17 8 0 -3 15 5 32 18
18 13 42 28 53 34 43 24 201 115 215 124 82 51 430 207 557 250 32 11 67 24
78 29 24 11 237 77 280 87 17 4 34 9 40 12 5 3 18 7 30 8 11 1 47 9 80 17 82
21 249 55 308 62 26 3 69 10 95 15 26 4 85 12 132 15 47 4 88 9 91 11 4 2 87
6 185 10 99 4 180 7 181 8 5 3 199 -5 333 -14z"/>
<path d="M5644 8195 c50 -134 33 -363 -36 -498 -51 -102 -161 -227 -230 -263
-41 -21 -34 -24 20 -7 70 23 288 23 352 0 137 -47 203 -84 284 -158 31 -28 70
-73 88 -100 35 -55 42 -61 28 -25 -25 67 -40 238 -25 306 2 14 7 39 11 55 20
95 99 241 170 312 18 17 29 35 26 40 -4 4 -3 5 1 1 7 -5 70 36 105 67 1 1 -21
-4 -50 -12 -211 -57 -471 9 -630 160 -20 20 -39 32 -43 29 -4 -4 -5 -2 -3 3 1
6 -15 33 -36 60 -22 28 -36 41 -32 30z"/>
<path d="M3770 7705 c-15 -330 -180 -685 -431 -925 -74 -71 -98 -90 -196 -157
-105 -71 -160 -100 -265 -141 -40 -16 -82 -32 -93 -37 -11 -4 -27 -9 -35 -10
-8 -1 -42 -9 -75 -18 -33 -9 -88 -19 -123 -23 -34 -4 -61 -8 -60 -9 2 -2 35
-6 73 -9 39 -4 84 -9 100 -12 17 -4 37 -8 45 -9 128 -19 352 -112 492 -203 42
-28 80 -47 84 -44 4 4 4 1 0 -5 -4 -7 -4 -13 1 -13 11 0 76 -54 132 -110 25
-25 50 -43 56 -42 5 2 7 1 3 -3 -4 -4 17 -35 45 -69 29 -33 63 -78 76 -98 12
-21 28 -38 33 -38 6 0 8 -3 5 -6 -4 -4 2 -19 12 -33 52 -74 140 -294 172 -431
14 -58 15 -66 17 -119 3 -47 9 -36 17 29 11 95 23 163 36 215 66 248 186 460
365 643 55 56 98 105 95 109 -3 3 -1 3 5 0 6 -3 21 4 35 16 74 66 252 167 379
215 93 35 191 61 290 76 83 12 89 14 45 16 -151 5 -361 59 -515 133 -88 42
-213 115 -218 129 -2 4 -7 8 -12 8 -9 0 -48 32 -120 98 -26 23 -52 42 -59 42
-6 0 -10 4 -8 9 1 5 -16 28 -38 53 -185 203 -304 458 -349 745 l-14 88 -2 -60z
m147 -1083 c65 -65 143 -139 173 -165 30 -26 50 -46 45 -44 -21 5 -238 -210
-228 -226 3 -6 2 -8 -3 -4 -5 3 -25 -16 -44 -41 l-35 -47 -41 42 c-23 24 -39
43 -37 43 2 0 -33 35 -77 78 -45 42 -83 76 -85 75 -2 0 -23 17 -48 39 l-45 41
112 111 c107 108 127 130 171 189 11 15 21 27 22 27 2 0 56 -53 120 -118z"/>
<path d="M2185 4995 c7 -22 16 -60 20 -85 6 -45 6 -46 -39 -79 -25 -19 -43
-38 -40 -43 3 -5 1 -7 -4 -6 -15 5 -69 -62 -97 -119 -53 -109 -63 -226 -30
-355 8 -30 -16 -59 -82 -99 -43 -27 -42 -31 5 -15 50 17 122 28 122 18 0 -43
209 -216 239 -198 5 4 11 2 13 -4 9 -29 223 -37 292 -10 35 13 50 1 97 -71 35
-55 43 -62 28 -21 -6 15 -13 41 -15 57 -3 17 -7 40 -9 52 -4 16 3 28 27 45
155 109 231 291 197 471 -15 83 -19 110 -12 103 3 -3 20 7 37 22 17 15 43 35
56 44 24 16 22 16 -33 2 -76 -19 -108 -15 -123 15 -21 41 -119 127 -177 154
-116 56 -263 65 -367 23 -14 -5 -40 24 -105 119 -12 17 -12 14 0 -20z m334
-477 c24 -25 29 -37 26 -71 -6 -96 -129 -131 -180 -53 -19 29 -22 90 -6 110 6
7 9 16 6 19 -3 4 -2 5 2 2 3 -3 12 0 19 6 18 15 66 26 86 21 10 -2 31 -18 47
-34z"/>
</g>
</svg>
