<?xml version="1.0" encoding="UTF-8"?><svg xmlns="http://www.w3.org/2000/svg" viewBox="0 0 74.81 74.7"><defs><style>.d{fill:#fff;}</style></defs><g id="a"/><g id="b"><g id="c"><path d="M37.37,74.7C16.61,74.64-.05,57.91,0,37.15,.05,16.59,16.86-.03,37.58,0c20.7,.03,37.32,16.84,37.23,37.65-.09,20.5-16.86,37.1-37.44,37.05ZM48.94,4.41c-2.29,1.67-2.82,1.56-4.59-.62-.34-.42-.91-.73-1.44-.88-.69-.2-1.45-.13-2.16-.27-1.01-.2-1.85,.03-2.47,.84-.81,1.05-1.82,1.45-3.12,1.17-.87-.18-1.55,.12-2,.92-.29,.52-.64,1-.98,1.49-.93,1.33-.73,2.6,.14,3.87,.89,1.3,1.89,2.52,3.66,2.23,2.09-.35,4.13-.84,5.58-2.66,.45-.56,1.26-1.02,1.97-1.14,2.72-.47,6,1.86,6.62,4.56,.25,1.09-.15,1.63-1.32,1.61-.78-.02-1.57-.33-2.35-.3-.67,.02-1.54,.12-1.97,.54-1.15,1.16-1.28,2.7-1.06,4.26,.19,1.34,1.33,1.52,2.33,1.81,.96,.27,1.72,.79,2.02,1.72,.14,.44,.09,1.08-.16,1.45-.15,.23-.85,.25-1.24,.13-1.26-.38-2.51-.83-3.73-1.33-.4-.16-.88-.48-1.02-.85-.45-1.14-1.34-1.13-2.29-1.06-.92,.07-1.87,.06-2.76,.26-.74,.17-1.56,.45-2.1,.94-.91,.85-1.74,1.83-2.38,2.89-1.01,1.67-.95,3.39,.33,4.98,.43,.54,.79,1.14,1.17,1.71-1.68,1.2-3.13,1.24-4.22,.04-.59-.66-1.01-1.53-1.32-2.37-.54-1.46-.9-1.82-2.43-1.7-.85,.07-1.71,.23-2.53,.46-1.19,.34-2.22,.09-3.16-.65-.42-.32-.82-.67-1.25-.98-2.36-1.76-5.18-.95-6.27,1.79-.51,1.29,0,2.46,.46,3.63,.38,.99,1.27,1.02,2.15,1.06,.33,.01,.66,.09,.97,.19,1.27,.42,1.91,1.42,2.14,2.64,.22,1.14-.73,1.58-1.52,2.08-.17,.11-.35,.19-.5,.31-1.09,.85-1.06,1.6,.1,2.28,.17,.1,.36,.16,.54,.25,2.41,1.3,4.44,2.84,4.58,5.95,.06,1.41,.99,2.32,2.42,2.45,1.5,.14,3.05,.37,4.51,.13,2.21-.36,4.04,.13,5.71,1.55,.75,.64,1.55,1.24,2.28,1.91,1.63,1.47,3.35,1.86,5.46,.94,1.38-.6,2.85-.59,3.99,.75,.63,.75,1.45,.89,2.34,.53,.86-.35,1.57-.05,2.2,.47,.61,.5,1.16,1.08,1.7,1.66,.88,.96,1.04,2.03,.69,3.31-.61,2.29-1.51,4.33-3.52,5.79-1.08,.79-1.69,1.94-1.68,3.61,6.75-2.1,12.18-5.7,16.66-10.95-1.96-2.24-2.04-4.53-.78-6.94,.12-.23,.2-.5,.23-.76,.17-1.88,1.36-2.58,3.07-2.69,.13,0,.26-.04,.39-.06,1.41-.15,2.26-.82,2.52-2.32,.14-.8,.53-1.74,1.12-2.23,.99-.81,1.3-1.81,1.37-2.93,.13-1.98,.18-3.96,.21-5.94,.01-.63-.13-1.27-.19-1.84-.36-.13-.54-.23-.73-.26-3.59-.48-4.54-1.9-3.43-5.4,.35-1.09-.05-1.76-.7-2.48-1.05-1.16-.84-2.45-.25-3.69,.24-.51,.75-.89,1.21-1.43-4.38-7.88-10.79-13.35-19.22-16.42ZM3.2,31.28c-3.97,20.62,11.94,37.84,26.6,39.78,.09-.16,.28-.35,.25-.5-.42-2.51-.52-5.19-2.93-6.82-1.84-1.25-2.79-2.94-2.83-5.16,0-.46-.05-.93-.05-1.39,0-1.68-.62-3.05-1.77-4.27-.62-.65-1.1-1.48-1.5-2.29-.44-.88-.77-1.83-1.07-2.77-.44-1.37-1.41-2.08-2.76-2.21-.98-.1-2.07-.26-2.94,.06-2.57,.94-4.47-.19-6.39-1.6-1.18-.86-1.69-1.92-1.51-3.41,.1-.89-.04-1.82-.21-2.71-.25-1.36-.69-2.68-.92-4.04-.2-1.19-.67-2.08-1.97-2.67Z"/><path class="d" d="M48.94,4.41c8.43,3.07,14.84,8.54,19.22,16.42-.47,.54-.97,.92-1.21,1.43-.59,1.25-.8,2.54,.25,3.69,.65,.72,1.04,1.39,.7,2.48-1.11,3.5-.16,4.92,3.43,5.4,.19,.03,.37,.13,.73,.26,.06,.57,.21,1.21,.19,1.84-.03,1.98-.08,3.96-.21,5.94-.07,1.12-.38,2.12-1.37,2.93-.59,.49-.98,1.43-1.12,2.23-.26,1.51-1.11,2.17-2.52,2.32-.13,.01-.26,.05-.39,.06-1.72,.11-2.9,.81-3.07,2.69-.02,.26-.11,.53-.23,.76-1.27,2.41-1.18,4.7,.78,6.94-4.49,5.25-9.91,8.85-16.66,10.95-.01-1.67,.59-2.82,1.68-3.61,2-1.46,2.91-3.5,3.52-5.79,.34-1.27,.18-2.35-.69-3.31-.54-.58-1.09-1.16-1.7-1.66-.63-.52-1.34-.82-2.2-.47-.88,.36-1.7,.23-2.34-.53-1.13-1.35-2.61-1.35-3.99-.75-2.1,.92-3.83,.53-5.46-.94-.74-.66-1.53-1.26-2.28-1.91-1.66-1.41-3.49-1.91-5.71-1.55-1.46,.24-3.01,0-4.51-.13-1.43-.13-2.36-1.04-2.42-2.45-.13-3.11-2.17-4.65-4.58-5.95-.17-.09-.37-.15-.54-.25-1.16-.69-1.19-1.43-.1-2.28,.16-.12,.34-.21,.5-.31,.79-.49,1.74-.94,1.52-2.08-.24-1.21-.88-2.21-2.14-2.64-.31-.1-.64-.17-.97-.19-.88-.04-1.77-.07-2.15-1.06-.45-1.17-.97-2.34-.46-3.63,1.09-2.75,3.91-3.55,6.27-1.79,.42,.32,.83,.66,1.25,.98,.95,.74,1.97,.98,3.16,.65,.82-.23,1.68-.4,2.53-.46,1.53-.12,1.89,.25,2.43,1.7,.31,.84,.73,1.72,1.32,2.37,1.09,1.2,2.54,1.16,4.22-.04-.39-.57-.74-1.17-1.17-1.71-1.28-1.59-1.34-3.3-.33-4.98,.64-1.06,1.48-2.04,2.38-2.89,.54-.5,1.36-.77,2.1-.94,.89-.2,1.84-.19,2.76-.26,.95-.07,1.84-.08,2.29,1.06,.15,.37,.62,.69,1.02,.85,1.22,.5,2.47,.95,3.73,1.33,.39,.12,1.09,.1,1.24-.13,.24-.37,.3-1.01,.16-1.45-.3-.94-1.07-1.45-2.02-1.72-1-.29-2.14-.47-2.33-1.81-.22-1.56-.09-3.11,1.06-4.26,.42-.42,1.29-.52,1.97-.54,.78-.02,1.56,.29,2.35,.3,1.18,.02,1.58-.52,1.32-1.61-.62-2.7-3.9-5.03-6.62-4.56-.71,.12-1.52,.58-1.97,1.14-1.45,1.83-3.49,2.32-5.58,2.66-1.77,.3-2.77-.93-3.66-2.23-.86-1.26-1.07-2.54-.14-3.87,.34-.49,.69-.97,.98-1.49,.45-.8,1.13-1.1,2-.92,1.31,.27,2.32-.12,3.12-1.17,.62-.81,1.46-1.04,2.47-.84,.71,.14,1.47,.07,2.16,.27,.53,.15,1.1,.47,1.44,.88,1.77,2.18,2.3,2.29,4.59,.62Z"/><path class="d" d="M3.2,31.28c1.3,.59,1.77,1.48,1.97,2.67,.23,1.36,.67,2.68,.92,4.04,.17,.89,.31,1.83,.21,2.71-.17,1.49,.34,2.55,1.51,3.41,1.92,1.41,3.82,2.55,6.39,1.6,.87-.32,1.97-.16,2.94-.06,1.35,.14,2.32,.85,2.76,2.21,.3,.94,.63,1.89,1.07,2.77,.41,.81,.88,1.64,1.5,2.29,1.16,1.22,1.78,2.6,1.77,4.27,0,.46,.04,.93,.05,1.39,.04,2.22,.99,3.91,2.83,5.16,2.4,1.64,2.5,4.31,2.93,6.82,.03,.15-.17,.34-.25,.5C15.14,69.12-.77,51.9,3.2,31.28Z"/></g></g></svg>