<?xml version="1.0" encoding="UTF-8"?><svg xmlns="http://www.w3.org/2000/svg" viewBox="0 0 74.56 74.57"><defs><style>.f{fill:#414343;}</style></defs><g id="a"/><g id="b"><g id="c"><g id="d"><g id="e"><path d="M37.28,74.57C16.73,74.57,0,57.84,0,37.28S16.73,0,37.28,0s37.28,16.73,37.28,37.28-16.73,37.29-37.28,37.29Zm0-72.57C17.83,2,2,17.83,2,37.28s15.83,35.29,35.28,35.29,35.28-15.83,35.28-35.29S56.74,2,37.28,2Z"/><g><path d="M17.58,29.97v1.99h-5.82c-1.03,0-1.48,.56-1.48,1.35,0,.69,.35,1.35,1.68,1.35h2.66c3.1,0,3.82,1.72,3.82,3.35,0,1.92-1.03,3.33-3.62,3.33h-6.33v-1.99h6.4c1.08,0,1.56-.59,1.56-1.41,0-.74-.39-1.41-1.78-1.41h-2.64c-3.03,0-3.74-1.7-3.74-3.28,0-1.89,1.01-3.27,3.53-3.27h5.76Z"/><path d="M26.23,32.45c2.36,0,3.84,1.45,3.84,4.44s-1.48,4.44-3.84,4.44h-3.94v3.57h-1.78v-8.65c0-2.56,1.13-3.8,3.27-3.8h2.45Zm-3.94,7.15h3.75c1.55,0,2.22-.79,2.22-2.71s-.67-2.73-2.22-2.73h-1.75c-1.45,0-2,.64-2,2.17v3.27Z"/><path d="M37.9,32.45c2.22,0,3.1,1.25,3.1,2.93v4.17c0,1.28-.34,1.78-1.83,1.78h-4.16c-2.1,0-2.98-1.03-2.98-2.71s.81-2.56,3-2.56h4.22v-.67c0-.69-.39-1.23-1.36-1.23h-5.32v-1.72h5.33Zm1.35,6.71v-1.67h-4.19c-.94,0-1.28,.39-1.28,1.04s.35,1.08,1.25,1.08h3.74c.35,0,.49-.13,.49-.45h-.01Z"/><path d="M51.54,32.45v1.72h-4.41c-1.55,0-2.22,.81-2.22,2.73s.67,2.71,2.22,2.71h4.41v1.73h-4.58c-2.37,0-3.85-1.45-3.85-4.44s1.48-4.44,3.85-4.44h4.58Z"/><path d="M55.44,28.59v12.74h-1.78v-12.74h1.78Z"/><path d="M63.79,32.45c2.1,0,3,1.01,3,2.73s-.82,2.56-3.01,2.56h-4.22v.64c0,.71,.39,1.23,1.36,1.23h5.44v1.73h-5.44c-2.22,0-3.1-1.25-3.1-2.93v-3.03c0-1.68,.88-2.93,3.1-2.93h2.87Zm-4.24,3.89h4.17c.96,0,1.31-.4,1.31-1.06s-.39-1.11-1.26-1.11h-2.86c-.98,0-1.36,.54-1.36,1.23v.94Z"/></g></g></g><g><path class="f" d="M27.61,23.88v1.71c0,.25,.11,.4,.37,.4h.4c.25,0,.37-.15,.37-.4v-1.71h.39v1.74c0,.54-.25,.81-.73,.81h-.47c-.48,0-.73-.28-.73-.81v-1.74h.4Z"/><path class="f" d="M30.62,24.44c.6,0,.89,.32,.89,.87v1.12h-.36v-1.12c0-.31-.16-.49-.53-.49h-.58s-.04,.02-.04,.06v1.56h-.35v-1.69c0-.23,.07-.31,.25-.31h.73Z"/><path class="f" d="M33.82,23.57v2.01c0,.58-.23,.86-.65,.86h-.49c-.47,0-.76-.33-.76-1s.29-1,.76-1h.78v-.87h.36Zm-.36,1.99v-.74h-.74c-.3,0-.44,.18-.44,.61s.14,.61,.44,.61h.35c.28,0,.39-.14,.39-.48Z"/><path class="f" d="M35.47,24.44c.42,0,.59,.23,.59,.61s-.16,.58-.6,.58h-.84v.14c0,.16,.08,.28,.27,.28h1.08v.39h-1.08c-.44,0-.61-.28-.61-.66v-.68c0-.38,.17-.66,.61-.66h.57Zm-.84,.87h.83c.19,0,.26-.09,.26-.24s-.08-.25-.25-.25h-.57c-.19,0-.27,.12-.27,.28v.21Z"/><path class="f" d="M37.69,24.44v.39h-.62c-.16,0-.23,.08-.23,.26v1.36h-.35v-1.42c0-.4,.13-.58,.48-.58h.72Z"/><path class="f" d="M40.48,23.88v.45h-.66v2.11h-.4v-2.11h-.66v-.45h1.71Z"/><path class="f" d="M41.18,23.57v.87h.62c.59,0,.89,.33,.89,.87v1.12h-.36v-1.12c0-.31-.16-.49-.53-.49h-.62v1.61h-.35v-2.87h.35Z"/><path class="f" d="M44.32,24.44c.42,0,.59,.23,.59,.61s-.16,.58-.6,.58h-.84v.14c0,.16,.08,.28,.27,.28h1.08v.39h-1.08c-.44,0-.61-.28-.61-.66v-.68c0-.38,.17-.66,.61-.66h.57Zm-.84,.87h.83c.19,0,.26-.09,.26-.24s-.08-.25-.25-.25h-.57c-.19,0-.27,.12-.27,.28v.21Z"/><path class="f" d="M48,23.88v.45h-1.15c-.2,0-.29,.12-.29,.3,0,.16,.07,.3,.33,.3h.53c.61,0,.76,.39,.76,.75,0,.43-.2,.75-.72,.75h-1.25v-.45h1.27c.21,0,.31-.13,.31-.32,0-.17-.08-.32-.35-.32h-.52c-.6,0-.74-.38-.74-.74,0-.42,.2-.73,.7-.73h1.14Z"/><path class="f" d="M48.64,24.44v-.47h.36v.47h.49v.39h-.49v.95c0,.22,.07,.3,.24,.3h.24v.37h-.32c-.36,0-.52-.17-.52-.69v-.92h-.24v-.39h.24Z"/><path class="f" d="M50.96,24.44c.44,0,.61,.28,.61,.66v.94c0,.29-.07,.4-.36,.4h-.82c-.42,0-.59-.23-.59-.61s.16-.58,.59-.58h.84v-.15c0-.16-.08-.28-.27-.28h-1.05v-.39h1.06Zm.27,1.51v-.37h-.83c-.19,0-.25,.09-.25,.23s.07,.24,.25,.24h.74c.07,0,.1-.03,.1-.1Z"/><path class="f" d="M53.26,24.44v.39h-.62c-.16,0-.23,.08-.23,.26v1.36h-.35v-1.42c0-.4,.13-.58,.48-.58h.72Z"/><path class="f" d="M55.08,24.44v.39h-.97c-.16,0-.23,.08-.23,.23,0,.14,.05,.22,.25,.22h.41c.49,0,.61,.25,.61,.56,0,.36-.16,.61-.58,.61h-1.02v-.39h1.02c.16,0,.23-.06,.23-.22s-.07-.22-.25-.22h-.42c-.49,0-.61-.28-.61-.58,0-.36,.16-.58,.57-.58h.98Z"/></g><path class="f" d="M23.28,22.05c-1.53,0-2.77,1.24-2.77,2.77s1.24,2.77,2.77,2.77,2.77-1.24,2.77-2.77-1.24-2.77-2.77-2.77Zm-1.54,2.87c0,.11-.06,.21-.15,.26,0,.05,.02,.09,.04,.14-.02-.04-.05-.08-.08-.12-.03,.01-.07,.02-.11,.02-.11,0-.21-.06-.26-.15-.05,0-.09,.02-.14,.04,.04-.02,.08-.05,.12-.08-.01-.03-.02-.07-.02-.1,0-.11,.06-.21,.15-.26,0-.05-.02-.09-.04-.14,.02,.04,.05,.08,.08,.12,.03-.01,.07-.02,.1-.02,.11,0,.21,.06,.26,.15,.05,0,.09-.02,.14-.04-.04,.02-.08,.05-.12,.08,.01,.03,.02,.07,.02,.1Zm.58-.34c-.01-.49-.42-.88-.92-.87,.49-.01,.88-.42,.87-.92,.01,.49,.42,.88,.92,.87-.49,.01-.88,.42-.87,.92Zm1.46-1.18c-.1-.21-.35-.3-.56-.2,.21-.1,.3-.35,.2-.56,.1,.21,.35,.3,.56,.2-.21,.1-.3,.35-.2,.56Z"/></g></g></svg>