<?xml version="1.0" encoding="UTF-8"?><svg xmlns="http://www.w3.org/2000/svg" viewBox="0 0 74.75 74.69"><defs><style>.d{fill:#fff;}</style></defs><g id="a"/><g id="b"><g id="c"><path d="M37.4,0c20.66-.03,37.33,16.62,37.35,37.31,.01,20.7-16.6,37.36-37.27,37.38C16.68,74.72,.02,58.08,0,37.28-.02,16.69,16.69,.03,37.4,0Zm34.83,36.65c-.82-.19-1.52-.35-2.21-.5-6.16-1.38-12.35-.94-18.54-.23-7.57,.87-15.16,.98-22.76,.4-8.15-.63-16.24-.52-24.17,1.8-.67,.2-1.34,.43-2.06,.66,.24,2.74,.4,5.29,1.36,7.75,.88,0,1.66,.04,2.45,0,5.01-.28,10.02-.66,15.04-.86,10.7-.42,21.39-.77,32.09-1.1,1.78-.06,3.57,.09,5.35,.13,3.69,.08,7.39,.17,11.08,.22,.51,0,1.02-.16,1.6-.25,.6-2.65,.92-5.24,.77-7.99ZM4.03,26.76c.64,.14,.84,.23,1.02,.22,6.4-.28,12.8-.49,19.19-.9,5.33-.34,10.65-.97,15.98-1.35,8.25-.58,16.5-.41,24.74,.33,1.63,.15,3.26,.27,5.18,.43-.79-2.45-1.92-4.43-3.03-6.44-.59-1.05-1.37-1.47-2.55-1.48-3.43-.03-6.87-.12-10.3-.18-12.77-.21-25.47,.89-38.15,2.17-2.76,.28-5.51,.64-8.25,1.04-.52,.08-1.23,.37-1.44,.78-.86,1.68-1.56,3.44-2.4,5.36ZM62.38,13.65l.24-.57c-1.77-1.45-3.52-2.92-5.32-4.33-.33-.26-.85-.35-1.3-.39-8.48-.84-16.97-1.46-25.5-1.26-3.25,.07-6.42,.61-9.62,1.14-3.36,.56-6.08,2.04-8.27,4.59-.71,.82-1.43,1.63-2.15,2.45l.21,.38c17.18-2.26,34.44-2.14,51.71-1.99Zm3.49,43.51c-2.97-.36-5.58-.83-8.2-.96-5.07-.26-10.15-.35-15.23-.47-1.23-.03-2.22,.26-2.81,1.65-1.5,3.52-4.42,5.11-8.12,5.36-3.33,.22-6.38-.74-9.3-2.27-.91-.48-1.99-1.05-2.94-.97-2.46,.19-4.9,.71-7.56,1.13,.33,.47,.49,.83,.76,1.07,1.22,1.12,2.47,2.19,3.69,3.3,.84,.76,1.77,1.02,2.9,.91,3.22-.32,6.45-.53,9.67-.85,10.44-1.05,20.87-2.31,31.38-2.45,.56,0,1.28-.09,1.66-.43,1.51-1.35,2.9-2.83,4.12-5.03Zm-38.72,.13c.95,.06,1.71,.04,2.43,.18,.87,.16,1.62,.1,2.01-.78,.41-.91-.18-1.52-.86-1.98-.48-.33-1.03-.61-1.59-.76-2.45-.65-4.58,.12-6.4,1.73-1.47,1.3-1.21,2.73,.59,3.57,2.75,1.29,5.65,1.81,8.67,1.53,1.55-.15,2.95-.72,4.07-1.84,1.24-1.24,1.54-2.69,.83-3.94-.82-1.45-2.6-2.24-4.4-1.82,1.23,1.23,2.09,2.6,1.17,4.26-.92,1.67-2.63,1.85-4.32,1.84-1.02,0-1.99-.22-2.22-1.99Zm-2.62,12.07c1.99,1.27,4.14,1.85,6.34,2.23,.77,.13,1.6,.33,2.34,.19,4.11-.8,8.27-.94,12.44-.92,.91,0,1.86-.13,2.71-.44,1.8-.65,3.54-1.45,5.29-2.22,.38-.17,.7-.49,1.39-.98-10.47,.74-20.49,1.44-30.51,2.15Z"/><path class="d" d="M72.24,36.65c.15,2.76-.17,5.34-.77,7.99-.58,.1-1.09,.26-1.6,.25-3.69-.05-7.39-.14-11.08-.22-1.78-.04-3.57-.19-5.35-.13-10.7,.34-21.4,.68-32.09,1.1-5.02,.2-10.03,.57-15.04,.86-.78,.04-1.57,0-2.45,0-.96-2.46-1.12-5.01-1.36-7.75,.72-.23,1.39-.46,2.06-.66,7.93-2.32,16.03-2.42,24.17-1.8,7.6,.59,15.18,.47,22.76-.4,6.19-.71,12.37-1.14,18.54,.23,.7,.16,1.4,.32,2.21,.5Z"/><path class="d" d="M4.03,26.76c.84-1.92,1.54-3.68,2.4-5.36,.21-.41,.92-.71,1.44-.78,2.74-.4,5.49-.76,8.25-1.04,12.68-1.29,25.38-2.39,38.15-2.17,3.43,.06,6.87,.15,10.3,.18,1.17,0,1.96,.43,2.55,1.48,1.12,2,2.24,3.99,3.03,6.44-1.92-.16-3.55-.28-5.18-.43-8.24-.75-16.49-.92-24.74-.33-5.33,.38-10.65,1.01-15.98,1.35-6.39,.4-12.79,.61-19.19,.9-.19,0-.38-.08-1.02-.22Z"/><path class="d" d="M62.38,13.65c-17.27-.15-34.53-.27-51.71,1.99l-.21-.38c.72-.81,1.44-1.62,2.15-2.45,2.2-2.54,4.91-4.03,8.27-4.59,3.19-.53,6.37-1.07,9.62-1.14,8.53-.19,17.02,.42,25.5,1.26,.45,.04,.96,.13,1.3,.39,1.8,1.41,3.55,2.88,5.32,4.33l-.24,.57Z"/><path class="d" d="M65.87,57.17c-1.21,2.19-2.6,3.68-4.12,5.03-.38,.34-1.09,.42-1.66,.43-10.51,.14-20.94,1.39-31.38,2.45-3.22,.32-6.45,.54-9.67,.85-1.13,.11-2.07-.15-2.9-.91-1.22-1.11-2.47-2.18-3.69-3.3-.27-.24-.43-.6-.76-1.07,2.65-.42,5.09-.94,7.56-1.13,.95-.07,2.03,.5,2.94,.97,2.93,1.53,5.97,2.49,9.3,2.27,3.71-.25,6.62-1.84,8.12-5.36,.59-1.39,1.58-1.68,2.81-1.65,5.08,.12,10.16,.21,15.23,.47,2.62,.13,5.23,.6,8.2,.96Z"/><path class="d" d="M27.15,57.3c.23,1.77,1.21,1.98,2.22,1.99,1.69,0,3.4-.17,4.32-1.84,.91-1.66,.06-3.03-1.17-4.26,1.79-.42,3.58,.37,4.4,1.82,.71,1.25,.41,2.7-.83,3.94-1.12,1.12-2.52,1.69-4.07,1.84-3.02,.29-5.92-.24-8.67-1.53-1.79-.84-2.06-2.27-.59-3.57,1.82-1.61,3.95-2.38,6.4-1.73,.56,.15,1.11,.43,1.59,.76,.68,.46,1.26,1.07,.86,1.98-.39,.87-1.14,.93-2.01,.78-.73-.13-1.49-.11-2.43-.18Z"/></g></g></svg>