<?xml version="1.0" encoding="UTF-8"?><svg xmlns="http://www.w3.org/2000/svg" viewBox="0 0 74.78 74.72"><defs><style>.d{fill:#fff;}</style></defs><g id="a"/><g id="b"><g id="c"><path d="M37.45,0c20.64-.01,37.31,16.67,37.33,37.35,.02,20.64-16.66,37.25-37.33,37.37C18.02,74.83,.15,59.31,0,37.44-.14,16.71,16.68,.01,37.45,0Zm33.63,45.91c.22-.62,.41-.98,.47-1.36,.23-1.63,.51-3.27,.62-4.91,1.1-15.19-8.14-29.59-22.37-34.89-.49-.18-1-.37-1.52-.42-1.84-.16-3.69-.23-5.53-.4-1.6-.15-2.99,.26-4.25,1.25-.98,.78-2.02,1.5-3.07,2.18-1.53,1-3.16,1.24-4.91,.56-.98-.39-2-.67-3.01-.98-.77-.23-1.51-.13-1.88,.64-.66,1.37-1.82,2-3.14,2.55-.65,.27-1.2,.8-1.74,1.28-.88,.8-1.74,1.63-2.56,2.48-1.86,1.92-4.01,2.97-6.75,2.48-1.31-.23-2.2,.24-2.96,1.4-4.57,6.94-6.61,14.54-5.81,22.79,.28,2.86,1.21,5.67,1.88,8.49,.15,.63,.39,1.31,1.25,1.32,2.42,.02,4.23,1.1,5.8,2.92,1.3,1.51,3.01,1.6,4.63,.43,.9-.65,1.69-1.48,2.44-2.31,3-3.3,6.72-4.24,10.92-2.81,2.37,.81,4.79,1.47,7.17,2.27,1.86,.62,3.39,.17,4.63-1.29,.64-.75,1.28-1.53,1.74-2.39,.54-1.02,1.08-1.9,2.21-2.4,.46-.2,.74-.88,1.06-1.36,.29-.44,.42-1.06,.81-1.34,1.11-.8,1.23-1.93,1.41-3.13,.16-1.09,.41-2.2,.81-3.22,.72-1.82,1.27-2.08,3.22-1.54,1.4,.39,2.76,.91,4.12,1.42,1.95,.73,3.92,1.17,6.01,.7,.57-.13,1.18-.11,1.78-.11,1.11-.01,1.88,.48,2.26,1.57,.52,1.5,1.08,2.98,1.63,4.47,.5,1.37,1.11,2.66,2.65,3.65Zm-14.59,20.24c-.15-.12-.27-.27-.43-.33-.3-.12-.62-.26-.94-.28-3.14-.17-6.12,.74-9.14,1.37-.12,.03-.23,.13-.33,.21-1.26,1.01-2.7,1.34-4.28,1.17-1.06-.12-1.98,.22-2.68,1-1.02,1.12-2.1,2.14-3.89,2.43,4.23,1.71,17.55-1.27,21.69-5.57Z"/><path class="d" d="M71.08,45.92c-1.54-.99-2.14-2.28-2.65-3.65-.55-1.49-1.1-2.97-1.63-4.47-.38-1.08-1.14-1.58-2.26-1.57-.59,0-1.21-.02-1.78,.11-2.1,.47-4.06,.03-6.01-.7-1.36-.51-2.72-1.04-4.12-1.42-1.95-.54-2.5-.28-3.22,1.54-.4,1.03-.65,2.13-.81,3.22-.18,1.2-.29,2.33-1.41,3.13-.39,.28-.52,.9-.81,1.34-.32,.48-.59,1.16-1.06,1.36-1.14,.5-1.68,1.38-2.21,2.4-.45,.86-1.1,1.64-1.74,2.39-1.24,1.46-2.77,1.91-4.63,1.29-2.38-.79-4.8-1.45-7.17-2.27-4.2-1.44-7.92-.5-10.92,2.81-.75,.83-1.54,1.66-2.44,2.31-1.62,1.17-3.33,1.08-4.63-.43-1.57-1.82-3.38-2.9-5.8-2.92-.86,0-1.1-.69-1.25-1.32-.67-2.82-1.6-5.62-1.88-8.49-.8-8.25,1.24-15.85,5.81-22.79,.76-1.15,1.65-1.63,2.96-1.4,2.74,.49,4.9-.56,6.75-2.48,.83-.86,1.68-1.69,2.56-2.48,.53-.48,1.09-1.01,1.74-1.28,1.32-.55,2.48-1.18,3.14-2.55,.37-.77,1.12-.87,1.88-.64,1.01,.3,2.03,.59,3.01,.98,1.75,.69,3.38,.44,4.91-.56,1.05-.68,2.09-1.4,3.07-2.18,1.26-1,2.64-1.41,4.25-1.25,1.84,.18,3.69,.24,5.53,.4,.51,.05,1.03,.24,1.52,.42,14.23,5.29,23.47,19.7,22.37,34.89-.12,1.64-.39,3.28-.62,4.91-.05,.38-.25,.74-.47,1.36ZM26.8,23.71c-1.75,.51-3.56,.89-5.25,1.56-1.41,.55-1.8,1.44-1.4,2.86,.35,1.26,.78,2.54,1.46,3.64,.48,.78,1.34,1.53,2.19,1.84,3.61,1.32,5.86,.28,7.43-3.24,.11-.24,.2-.49,.31-.72,.8-1.66,.36-3.05-.9-4.28-1.06-1.04-2.32-1.46-3.84-1.65Zm20.15-4.01c1.41-.33,2.81-.69,4.22-.99,2.98-.63,3.37-1.29,2.43-4.24-1.02-3.19-3.59-4.41-6.75-3.37-1.04,.34-1.62,.85-1.65,1.89-.03,.99-.5,1.72-1.1,2.46-.76,.94-.72,1.74-.05,2.72,.69,1,1.64,1.5,2.89,1.54Z"/><path class="d" d="M56.49,66.15c-4.14,4.3-17.46,7.28-21.69,5.57,1.79-.28,2.87-1.31,3.89-2.43,.71-.78,1.62-1.11,2.68-1,1.58,.18,3.02-.16,4.28-1.17,.1-.08,.21-.18,.33-.21,3.02-.63,6-1.55,9.14-1.37,.32,.02,.64,.16,.94,.28,.16,.06,.28,.21,.43,.33Z"/><path d="M26.8,23.71c1.53,.19,2.79,.61,3.84,1.65,1.26,1.24,1.7,2.62,.9,4.28-.11,.24-.21,.48-.31,.72-1.57,3.52-3.82,4.56-7.43,3.24-.85-.31-1.71-1.06-2.19-1.84-.68-1.1-1.11-2.38-1.46-3.64-.4-1.42-.02-2.3,1.4-2.86,1.69-.66,3.49-1.05,5.25-1.56Z"/><path d="M46.95,19.69c-1.25-.04-2.2-.54-2.89-1.54-.67-.98-.71-1.78,.05-2.72,.6-.74,1.07-1.47,1.1-2.46,.03-1.05,.61-1.55,1.65-1.89,3.16-1.04,5.73,.19,6.75,3.37,.94,2.94,.55,3.6-2.43,4.24-1.41,.3-2.82,.66-4.22,.99Z"/></g></g></svg>