<?xml version="1.0" encoding="UTF-8"?><svg xmlns="http://www.w3.org/2000/svg" viewBox="0 0 74.81 74.69"><defs><style>.d{fill:#fff;}</style></defs><g id="a"/><g id="b"><g id="c"><path d="M37.36,74.69C16.72,74.67,0,57.94,0,37.32,0,16.73,16.76,0,37.41,0c20.87,0,37.47,16.72,37.4,37.67-.07,20.48-16.83,37.06-37.45,37.03Zm-13.32-5.14c.24-.32,.4-.52,.54-.73,2.38-3.53,5.52-4.73,9.57-3.54,1.15,.34,2.06,.14,2.95-.55,.84-.65,1.68-1.36,2.84-1.18,1.14,.17,1.72-.42,2.11-1.36,.18-.43,.36-.85,.58-1.26,1.09-2.07,3.08-3.06,5.05-3.95,1.6-.72,3.09,.08,4.46,.97,1.21,.8,2.54,1.14,3.97,.88,1.49-.27,2.65,.11,3.76,1.19,1.14,1.1,2.22,1.09,3.33,0,1.36-1.33,2.82-2.66,3.8-4.26,5.97-9.75,6.88-20.06,3.05-30.81-.15-.43-.31-.95-.65-1.2-1.54-1.16-2.07-2.8-2.49-4.58-.46-1.93-1.82-3.19-3.71-3.79-1.87-.6-3.16,.46-2.99,2.4,.03,.39,.16,.78,.17,1.18,.04,2.16-.21,4.25-1.8,5.9-1.19,1.24-2.32,1.26-3.67,.32-.63-.44-1.37-.71-2.08-1.03-.66-.3-1.36-.5-2-.83-2.2-1.13-4.46-.59-5.45,1.71-1.29,2.99-3.86,3.89-6.59,4.4-3.07,.57-5.59-1.74-5.67-4.87-.01-.59,.08-1.19,.11-1.78,.1-1.93-.25-2.38-2.15-2.98-.81-.26-1.68-.49-2.37-.95-2.41-1.59-4.91-2.04-7.72-1.24-2.29,.65-3.71,0-4.67-2.16-.49-1.1-.54-2.4-.73-3.62-.07-.41,.03-.85,.06-1.37C5.89,17.22,.41,32.09,3.25,43.71c.79,.19,1.62,.21,2.27,.57,1.82,1,3.29,.53,4.66-.8,.38-.37,.77-.73,1.15-1.09,.81-.78,1.78-1.08,2.9-.98,1.18,.1,2.37,.11,3.55,.18,1.08,.06,2.2,.23,2.8,1.22,.99,1.67,2.43,2.68,4.15,3.51,1.62,.79,2.17,3.01,1.53,5.1-.46,1.52-1.55,2.27-3.59,2.07-1.62-.16-3.23-.6-4.81-1.04-1.06-.3-1.97-.42-3.03,.14-.7,.37-1.69,.57-2.44,.39-1.98-.47-3.87,0-6.15,.02,4.13,7.77,9.97,13.18,17.81,16.56Z"/><path class="d" d="M24.04,69.55c-7.84-3.37-13.67-8.78-17.81-16.56,2.27-.02,4.17-.48,6.15-.02,.75,.18,1.74-.02,2.44-.39,1.05-.56,1.97-.44,3.03-.14,1.58,.45,3.19,.88,4.81,1.04,2.04,.2,3.13-.56,3.59-2.07,.63-2.09,.09-4.31-1.53-5.1-1.72-.84-3.15-1.84-4.15-3.51-.59-.99-1.71-1.16-2.8-1.22-1.18-.07-2.37-.08-3.55-.18-1.12-.09-2.09,.2-2.9,.98-.38,.37-.77,.73-1.15,1.09-1.37,1.32-2.84,1.8-4.66,.8-.65-.36-1.48-.39-2.27-.57C.41,32.09,5.89,17.22,15.64,10.44c-.03,.52-.12,.96-.06,1.37,.2,1.22,.24,2.53,.73,3.62,.97,2.17,2.39,2.8,4.67,2.16,2.81-.79,5.31-.34,7.72,1.24,.7,.46,1.56,.69,2.37,.95,1.9,.6,2.25,1.05,2.15,2.98-.03,.59-.12,1.19-.11,1.78,.08,3.12,2.6,5.44,5.67,4.87,2.73-.51,5.3-1.41,6.59-4.4,.99-2.3,3.25-2.84,5.45-1.71,.64,.33,1.34,.53,2,.83,.71,.32,1.45,.59,2.08,1.03,1.35,.95,2.48,.92,3.67-.32,1.59-1.65,1.84-3.74,1.8-5.9,0-.39-.14-.78-.17-1.18-.17-1.94,1.12-3,2.99-2.4,1.88,.61,3.24,1.86,3.71,3.79,.43,1.78,.95,3.42,2.49,4.58,.33,.25,.49,.77,.65,1.2,3.83,10.75,2.92,21.06-3.05,30.81-.98,1.6-2.44,2.93-3.8,4.26-1.11,1.09-2.19,1.1-3.33,0-1.11-1.07-2.27-1.46-3.76-1.19-1.42,.26-2.75-.08-3.97-.88-1.36-.9-2.86-1.7-4.46-.97-1.97,.89-3.97,1.88-5.05,3.95-.21,.41-.4,.83-.58,1.26-.39,.94-.97,1.53-2.11,1.36-1.16-.18-2,.53-2.84,1.18-.9,.69-1.8,.89-2.95,.55-4.05-1.19-7.2,.02-9.57,3.54-.14,.21-.3,.41-.54,.73Zm15.06-28.48c0,1.06-.16,2.49,1.15,2.61,2.19,.2,3.42,1.36,4.35,3.12,.03,.05,.09,.09,.14,.14,.81,.73,1.76,.92,2.76,.57,1.04-.36,1.56-1.18,1.6-2.27,.02-.72-.09-1.47,.02-2.17,.18-1.09,.36-2.21,.79-3.21,.72-1.66,.67-2.79-.81-3.74-1.02-.65-2.26-1.06-3.46-1.28-1.19-.23-1.76,.24-2.18,1.45-.34,.97-.91,1.52-1.92,1.76-2.26,.53-2.4,.75-2.44,3.04Z"/><path d="M39.11,41.07c.04-2.3,.18-2.51,2.44-3.04,1.01-.24,1.58-.79,1.92-1.76,.42-1.21,.99-1.67,2.18-1.45,1.2,.23,2.44,.63,3.46,1.28,1.49,.95,1.53,2.08,.81,3.74-.43,1-.61,2.13-.79,3.21-.12,.71,0,1.45-.02,2.17-.04,1.1-.56,1.91-1.6,2.27-1,.35-1.95,.16-2.76-.57-.05-.04-.11-.08-.14-.14-.94-1.76-2.17-2.92-4.35-3.12-1.3-.12-1.15-1.55-1.15-2.61Z"/></g></g></svg>