<?xml version="1.0" encoding="UTF-8"?><svg xmlns="http://www.w3.org/2000/svg" viewBox="0 0 74.74 74.71"><defs><style>.d{fill:#fff;}</style></defs><g id="a"/><g id="b"><g id="c"><path d="M0,37.4C-.04,16.71,16.54,.07,37.26,0c20.7-.07,37.33,16.52,37.48,37.19,.15,20.59-16.77,37.6-37.37,37.52C16.66,74.63,.04,58.11,0,37.4ZM10.63,14.97c-.6,.75-1.07,1.3-1.49,1.88-4.44,6.21-6.67,13.13-6.72,20.78-.01,2.19,1.03,3.81,2.54,5.15,1.72,1.53,3.28,1.23,4.38-.8,.6-1.09,1.01-2.29,1.42-3.48,1.61-4.6,5.16-7.14,10.06-7.16,1.12,0,2.25-.02,3.36-.18,1.67-.25,1.87-.49,1.83-2.2-.04-1.69,.55-3.1,1.62-4.35,1.77-2.08,3.96-3.49,6.64-4.08,4.87-1.07,9.92,1.56,11.43,4.84,.9,1.96,1.39,2.02,3.47,1.28,3.27-1.16,6.51-1.07,9.63,.44,2.4,1.15,3.76,3.06,3.68,5.83-.13,4.56-3.16,6.66-7.46,5.2-.63-.21-1.32-.27-1.99-.41-.11,.46-.22,.65-.18,.83,.08,.45,.21,.89,.34,1.33,.16,.57,.4,1.12,.5,1.7,.41,2.25-.45,4.3-3.43,2.83-1.39-.68-2.69-.48-3.93,.38-.38,.26-.75,.55-1.14,.79-1.57,.93-3.01,.68-3.9-.9-.54-.95-.8-2.08-1.03-3.16-.23-1.08-.7-1.83-1.79-2.13-1.97-.55-3.23,.28-3.48,2.35-.17,1.44-.17,2.91-.37,4.35-.5,3.48-1.74,6.52-5.16,8.16-.18,.09-.35,.18-.51,.31-1.01,.79-1.01,1.52,.09,2.15,1.03,.58,2.16,.99,3.21,1.56,1.51,.81,3.08,1.56,4.45,2.57,3.51,2.6,4.02,6.35,1.49,9.91-.29,.41-.57,.82-.91,1.31,10.86,.64,24.5-5.92,31.15-18.8,6.57-12.72,3.89-27.6-2.52-35.5-.36,.48-.67,.96-1.04,1.39-1.69,1.96-4.22,2.57-6.24,1.38-2.3-1.36-3.92-3.35-4.71-5.92-.61-1.97,.22-3.68,2.1-4.6,.51-.25,1.05-.43,1.58-.65l.32-.46c-.31-.13-.65-.21-.92-.39C46.1,1.5,34.71,.52,22.79,5.64c-.93,.4-1.36,.9-1.49,2.02-.4,3.75-2.49,6.31-6.01,7.69-1.54,.61-3.07,.87-4.66-.38Z"/><path class="d" d="M10.63,14.97c1.6,1.25,3.12,.98,4.66,.38,3.52-1.38,5.6-3.94,6.01-7.69,.12-1.12,.56-1.62,1.49-2.02C34.71,.52,46.1,1.5,56.99,8.51c.28,.18,.61,.26,.92,.39l-.32,.46c-.53,.21-1.07,.4-1.58,.65-1.88,.92-2.7,2.63-2.1,4.6,.79,2.57,2.41,4.56,4.71,5.92,2.02,1.2,4.55,.59,6.24-1.38,.37-.43,.69-.92,1.04-1.39,6.41,7.9,9.09,22.78,2.52,35.5-6.65,12.89-20.29,19.45-31.15,18.8,.34-.49,.62-.9,.91-1.31,2.53-3.56,2.02-7.31-1.49-9.91-1.37-1.01-2.94-1.76-4.45-2.57-1.05-.56-2.18-.97-3.21-1.56-1.1-.62-1.1-1.36-.09-2.15,.16-.12,.33-.22,.51-.31,3.43-1.64,4.67-4.68,5.16-8.16,.21-1.44,.2-2.9,.37-4.35,.24-2.07,1.5-2.9,3.48-2.35,1.09,.3,1.56,1.05,1.79,2.13,.23,1.08,.49,2.22,1.03,3.16,.9,1.58,2.33,1.83,3.9,.9,.4-.23,.76-.52,1.14-.79,1.24-.85,2.54-1.06,3.93-.38,2.98,1.47,3.84-.59,3.43-2.83-.11-.58-.34-1.13-.5-1.7-.13-.44-.26-.88-.34-1.33-.03-.17,.08-.37,.18-.83,.67,.13,1.36,.19,1.99,.41,4.3,1.46,7.33-.64,7.46-5.2,.08-2.77-1.28-4.68-3.68-5.83-3.12-1.5-6.36-1.6-9.63-.44-2.08,.74-2.57,.68-3.47-1.28-1.5-3.28-6.55-5.92-11.43-4.84-2.68,.59-4.87,2-6.64,4.08-1.06,1.25-1.66,2.66-1.62,4.35,.04,1.7-.16,1.95-1.83,2.2-1.1,.16-2.24,.17-3.36,.18-4.89,.02-8.45,2.56-10.06,7.16-.41,1.18-.82,2.39-1.42,3.48-1.11,2.02-2.66,2.32-4.38,.8-1.51-1.34-2.55-2.96-2.54-5.15,.04-7.65,2.28-14.57,6.72-20.78,.42-.58,.89-1.13,1.49-1.88ZM56.65,52.55c.1,.49,.19,1.42,.5,2.28,.58,1.62,1.7,2.12,3.29,1.51,2.01-.78,3.46-2.19,4.14-4.25,.86-2.6-.94-4.82-3.68-4.68-2.64,.14-4.27,1.95-4.25,5.15Z"/><path d="M56.65,52.55c-.01-3.2,1.62-5,4.25-5.15,2.74-.15,4.54,2.08,3.68,4.68-.68,2.06-2.13,3.48-4.14,4.25-1.6,.62-2.71,.11-3.29-1.51-.31-.86-.4-1.79-.5-2.28Z"/></g></g></svg>