<?xml version="1.0" encoding="UTF-8"?><svg xmlns="http://www.w3.org/2000/svg" viewBox="0 0 74.77 74.75"><defs><style>.d{fill:#fff;}</style></defs><g id="a"/><g id="b"><g id="c"><path d="M37.48,0c21.05,.17,37.52,16.88,37.29,37.98-.22,20.59-17.43,37.06-37.94,36.76C17.57,74.47,0,58.91,0,37.23,0,16.56,16.95-.16,37.48,0ZM3.03,31.39c-1.28,7.88-.11,14.99,3.25,21.77,.47,.95,1.06,1.36,2.14,1.37,13.49,.18,26.97,.46,40.46,.57,6.15,.05,12.28-.45,18.27-2.05,1.24-.33,1.91-.89,2.39-2.03,2.48-5.94,3.28-12.1,2.44-18.45-.36-2.67-.92-5.32-2.18-7.86-22.79-2.95-44.93-.11-66.76,6.69Zm1.42-5.47c.75-.04,1.14-.02,1.52-.08,2.48-.4,4.95-.82,7.42-1.22,10.44-1.65,20.95-2.79,31.5-3.35,7.12-.38,14.26-.35,21.39-.51,.48-.01,.97-.1,1.66-.18-.45-.79-.74-1.37-1.09-1.91-4.27-6.59-10.05-11.32-17.43-14.03-1.2-.44-2.57-.67-3.85-.63-8.47,.24-16.83,1.42-25.06,3.47-1.18,.29-2.38,.83-3.37,1.52-5.2,3.65-9.05,8.44-11.65,14.24-.35,.77-.62,1.58-1.05,2.67Zm5.35,32.45c.36,.59,.51,.94,.74,1.23,4.81,5.75,10.84,9.61,18.09,11.51,.81,.21,1.7,.24,2.54,.17,5.2-.42,10.4-.85,15.6-1.37,1.82-.18,3.77-.3,5.4-1.03,5.94-2.63,10.64-6.83,14.26-12.22,.2-.29,.27-.66,.48-1.17-.93,.06-1.64,.08-2.36,.16-3.68,.42-7.35,.87-11.02,1.27-7.49,.81-15,1.47-22.54,1.4-5.09-.05-10.18-.23-15.26-.27-1.89-.02-3.78,.2-5.93,.32Z"/><path class="d" d="M3.03,31.39c21.83-6.8,43.97-9.64,66.76-6.69,1.26,2.54,1.83,5.19,2.18,7.86,.85,6.36,.05,12.51-2.44,18.45-.48,1.14-1.14,1.7-2.39,2.03-6,1.6-12.12,2.1-18.27,2.05-13.49-.11-26.97-.39-40.46-.57-1.08-.01-1.67-.43-2.14-1.37-3.36-6.78-4.53-13.89-3.25-21.77Zm53.44,13.13v.19c2.17-.2,4.37-.23,6.49-.66,1.71-.35,3.37-1.08,4.94-1.87,1.01-.51,.86-1.39-.14-1.95-.23-.13-.48-.23-.73-.3-4.98-1.42-9.9-1.24-14.72,.68-.77,.31-1.52,.82-2.1,1.42-.96,1-.73,1.75,.57,2.19,.49,.17,1.03,.27,1.54,.29,1.38,.04,2.77,.01,4.15,.01Z"/><path class="d" d="M4.45,25.92c.43-1.09,.7-1.9,1.05-2.67,2.6-5.8,6.45-10.59,11.65-14.24,.99-.7,2.19-1.23,3.37-1.52,8.23-2.05,16.58-3.23,25.06-3.47,1.28-.04,2.65,.19,3.85,.63,7.37,2.71,13.16,7.44,17.43,14.03,.35,.54,.64,1.12,1.09,1.91-.7,.08-1.18,.17-1.66,.18-7.13,.16-14.27,.13-21.39,.51-10.55,.56-21.06,1.7-31.5,3.35-2.48,.39-4.95,.82-7.42,1.22-.38,.06-.77,.04-1.52,.08Z"/><path class="d" d="M9.8,58.36c2.15-.12,4.04-.34,5.93-.32,5.09,.04,10.18,.22,15.26,.27,7.55,.07,15.05-.58,22.54-1.4,3.68-.4,7.35-.85,11.02-1.27,.71-.08,1.43-.1,2.36-.16-.2,.51-.28,.88-.48,1.17-3.63,5.38-8.32,9.59-14.26,12.22-1.63,.72-3.58,.85-5.4,1.03-5.19,.52-10.39,.95-15.6,1.37-.84,.07-1.73,.04-2.54-.17-7.25-1.91-13.28-5.76-18.09-11.51-.24-.28-.39-.64-.74-1.23Z"/><path d="M56.48,44.52c-1.38,0-2.77,.03-4.15-.01-.52-.01-1.05-.12-1.54-.29-1.3-.44-1.53-1.19-.57-2.19,.57-.6,1.33-1.11,2.1-1.42,4.82-1.92,9.74-2.1,14.72-.68,.25,.07,.5,.18,.73,.3,1,.55,1.15,1.43,.14,1.95-1.57,.79-3.23,1.52-4.94,1.87-2.12,.44-4.32,.46-6.48,.66v-.19Z"/></g></g></svg>