<?xml version="1.0" encoding="UTF-8"?><svg xmlns="http://www.w3.org/2000/svg" viewBox="0 0 74.74 74.71"><defs><style>.d{fill:#fff;}</style></defs><g id="a"/><g id="b"><g id="c"><path d="M0,37.26C0,16.65,16.75-.02,37.43,0c20.69,.02,37.3,16.65,37.31,37.36,0,20.67-16.67,37.36-37.32,37.35C16.63,74.7,0,58.05,0,37.26Zm39.98,34.31l.2,.5c.78-.06,1.57-.06,2.33-.18,4.01-.64,7.82-1.88,11.41-3.8,1.1-.59,1.83-1.31,2.3-2.53,1.12-2.89,3.11-4.91,6.37-5.26,1.03-.11,1.65-.65,2.24-1.41,4.79-6.16,7.22-13.15,7.47-20.92,.1-3.19-1.56-5.38-4.66-6.18-3.06-.79-5.73,.1-8.17,1.94-.52,.39-1.01,.81-1.65,1.33-.72-.61-1.39-1.13-2-1.71-1.7-1.58-3.69-2.55-6.01-2.77-5.18-.5-9.62,1.24-13.44,4.67-1.35,1.21-2.29,2.74-2.86,4.46-1.78,5.33,.22,11.84,4.7,15.25,1.92,1.46,3.56,3.16,4.76,5.25,1.91,3.31,1.63,6.43-.86,9.34-.63,.74-1.41,1.35-2.13,2.02Zm4.02-48.65c1.79-.17,3.62-.62,4.98-1.38,2.67-1.5,3.81-3.94,3.2-6.82-.55-2.58-2.81-4.58-5.65-4.76-1.5-.09-3.04,.02-4.53,.27-6.68,1.13-4.21,1.31-10.68-.3-.13-.03-.26-.06-.38-.09-4.58-1.43-8.6-.34-12.16,2.73-1.65,1.42-3.23,2.94-4.96,4.27-3.12,2.4-5.14,5.47-5.97,9.3-.4,1.86-.78,3.75-.93,5.64-.14,1.8,.72,3.21,2.47,3.89,1.23,.47,2.47,1,3.75,1.22,2.8,.47,5.08-.48,6.59-2.97,.48-.79,.93-1.61,1.22-2.48,1.44-4.33,4.26-7.22,8.65-8.54,.19-.06,.38-.13,.55-.21,3.18-1.55,6.43-1.79,9.81-.64,1.3,.44,2.69,.59,4.04,.88Z"/><path class="d" d="M39.98,71.57c.71-.67,1.49-1.28,2.13-2.02,2.49-2.91,2.77-6.03,.86-9.34-1.21-2.09-2.85-3.79-4.76-5.25-4.48-3.41-6.48-9.92-4.7-15.25,.58-1.72,1.51-3.25,2.86-4.46,3.82-3.43,8.25-5.17,13.44-4.67,2.31,.22,4.3,1.19,6.01,2.77,.62,.57,1.28,1.09,2,1.71,.64-.51,1.13-.94,1.65-1.33,2.44-1.84,5.11-2.74,8.17-1.94,3.1,.8,4.77,2.99,4.66,6.18-.25,7.77-2.69,14.76-7.47,20.92-.59,.76-1.21,1.3-2.24,1.41-3.25,.35-5.25,2.37-6.37,5.26-.47,1.22-1.2,1.94-2.3,2.53-3.59,1.92-7.4,3.16-11.41,3.8-.77,.12-1.55,.12-2.33,.18l-.2-.5Z"/><path class="d" d="M44.01,22.91c-1.35-.28-2.74-.44-4.04-.88-3.38-1.15-6.63-.91-9.81,.64-.18,.09-.37,.16-.55,.21-4.39,1.32-7.21,4.22-8.65,8.54-.29,.87-.75,1.7-1.22,2.48-1.51,2.49-3.79,3.44-6.59,2.97-1.28-.22-2.52-.74-3.75-1.22-1.75-.68-2.61-2.09-2.47-3.89,.15-1.89,.53-3.78,.93-5.64,.83-3.83,2.85-6.9,5.97-9.3,1.73-1.33,3.31-2.84,4.96-4.27,3.57-3.07,7.58-4.16,12.16-2.73,.13,.04,.26,.06,.38,.09,6.47,1.61,4,1.43,10.68,.3,1.49-.25,3.03-.36,4.53-.27,2.84,.17,5.1,2.18,5.65,4.76,.61,2.88-.53,5.32-3.2,6.82-1.36,.77-3.19,1.22-4.98,1.38Z"/></g></g></svg>