<?xml version="1.0" encoding="UTF-8"?><svg xmlns="http://www.w3.org/2000/svg" viewBox="0 0 104.73 74.74"><defs><style>.d{fill:#fff;}</style></defs><g id="a"/><g id="b"><g id="c"><path d="M53.12,0c9.87,.22,19.79,4.95,27.33,14.45,.87,1.09,1.71,1.59,3.12,1.53,3.91-.17,7.81,.13,11.58,1.22,1.58,.46,3.15,1.03,4.59,1.81,4.32,2.33,5.95,6.18,4.41,10.86-.71,2.16-1.83,4.25-3.08,6.17-2.35,3.63-5.5,6.59-8.82,9.34-1.37,1.14-2.72,2.34-4.22,3.28-1.44,.9-2.19,2.13-2.84,3.63-8.5,19.61-31.83,28.08-50.94,18.5-1.36-.68-2.65-.85-4.16-.73-6.41,.5-12.83,.66-19.11-1-2.02-.54-4.05-1.28-5.89-2.28-4.82-2.63-6.3-6.86-4.12-11.92,.88-2.03,2.06-4.04,3.52-5.7,2.35-2.66,4.98-5.09,7.63-7.47,1.02-.91,1.54-1.73,1.5-3.15-.3-11.98,4.19-21.88,13.18-29.76C33.19,3.21,41.9,.05,53.12,0Zm12,5.51c-.51,.36-.95,.64-1.36,.96-12.84,9.92-27.24,15.81-43.5,16.91-1.02,.07-1.54,.46-1.87,1.38-1.03,2.87-1.85,5.79-2.1,8.84-.05,.57,0,1.14,0,1.7,5.45,.59,20.24-2.01,31.28-6.57,9.91-4.1,19.08-9.34,27.02-16.94-2.86-2.78-6.03-4.71-9.46-6.29Zm14.53,11.9c-18.12,16.05-39.22,24.02-63.02,25.68,.36,2.99,1.2,5.65,2.39,8.2,.4,.03,.66,.09,.91,.07,.66-.04,1.32-.07,1.98-.16,7.22-.96,14.31-2.49,21.26-4.67,10.79-3.38,21.03-7.91,30.13-14.72,2.95-2.21,5.66-4.76,8.41-7.23,1.3-1.17,1.27-1.26,.42-2.87-.74-1.39-1.57-2.74-2.48-4.31ZM21.45,55.76c.81,1.65,1.85,2.99,3.04,4.2,.26,.26,.86,.31,1.29,.27,2.24-.2,4.49-.35,6.7-.71,14.88-2.45,28.92-7.38,42.1-14.67,3.52-1.95,6.78-4.35,10.15-6.57,.61-.4,1.17-.84,1.13-1.73-.13-2.76-.42-5.5-1.32-8.38-17.85,16.6-39.53,23.98-63.08,27.59ZM60.64,3.96c-2.58-1-5.08-1.15-7.55-1.47-1.32-.17-2.39,.15-3.48,.97-5.74,4.29-12.23,6.78-19.31,7.67-2.18,.27-3.88,1.03-5.18,2.77-1.07,1.43-2.19,2.81-3.27,4.24-.26,.35-.42,.78-.64,1.21,8.41,1.34,32.29-7.96,39.43-15.39Zm21.24,49.27c-13.89,7.89-28.55,13.21-44.57,16,2.13,1.29,4.06,1.72,5.97,2.14,2.38,.53,4.78,1.05,7.25,.52,7.01-1.5,13.7-3.86,20.19-6.92,3.8-1.79,6.68-4.43,8.95-7.85,.66-.99,1.26-2.02,1.87-3.04,.15-.26,.23-.57,.34-.86Zm-60.85,6.91c-3.43-4.77-5.58-10.02-6.77-15.74-1.89,1.15-3.94,3.58-5,5.78-1.84,3.81-.75,6.89,3.11,8.58,2.7,1.18,5.58,1.46,8.67,1.38ZM83.71,19.19c2.59,5.12,4.18,10.15,4.81,15.59,2.46-2.2,4.65-4.51,5.35-7.82,.51-2.4-.39-4.28-2.43-5.59-2.22-1.42-4.72-1.91-7.73-2.18Z"/><path class="d" d="M65.11,5.51c3.44,1.57,6.61,3.51,9.46,6.29-7.94,7.6-17.11,12.84-27.02,16.94-11.04,4.57-25.83,7.17-31.28,6.57,0-.56-.04-1.13,0-1.7,.25-3.05,1.07-5.97,2.1-8.84,.33-.92,.85-1.31,1.87-1.38,16.26-1.1,30.66-6.99,43.5-16.91,.41-.32,.86-.61,1.36-.96Z"/><path class="d" d="M79.64,17.41c.91,1.58,1.74,2.92,2.48,4.31,.85,1.6,.89,1.7-.42,2.87-2.75,2.47-5.45,5.02-8.41,7.23-9.1,6.81-19.34,11.34-30.13,14.72-6.95,2.18-14.04,3.7-21.26,4.67-.65,.09-1.32,.12-1.98,.16-.26,.01-.52-.04-.91-.07-1.19-2.55-2.03-5.21-2.39-8.2,23.8-1.65,44.9-9.63,63.02-25.68Z"/><path class="d" d="M21.45,55.76c23.55-3.61,45.23-10.99,63.08-27.59,.9,2.89,1.19,5.62,1.32,8.38,.04,.88-.52,1.33-1.13,1.73-3.37,2.21-6.63,4.62-10.15,6.57-13.18,7.3-27.22,12.23-42.1,14.67-2.21,.36-4.46,.51-6.7,.71-.43,.04-1.03-.01-1.29-.27-1.2-1.21-2.23-2.55-3.04-4.2Z"/><path class="d" d="M60.64,3.96c-7.13,7.43-31.02,16.73-39.43,15.39,.22-.43,.38-.86,.64-1.21,1.07-1.42,2.2-2.81,3.27-4.24,1.3-1.74,3-2.5,5.18-2.77,7.07-.89,13.57-3.39,19.31-7.67,1.09-.82,2.17-1.14,3.48-.97,2.47,.32,4.97,.47,7.55,1.47Z"/><path class="d" d="M81.88,53.23c-.11,.29-.18,.6-.34,.86-.61,1.02-1.21,2.05-1.87,3.04-2.27,3.42-5.16,6.06-8.95,7.85-6.49,3.06-13.18,5.43-20.19,6.92-2.47,.53-4.87,.01-7.25-.52-1.9-.42-3.83-.85-5.97-2.14,16.02-2.8,30.68-8.12,44.57-16Z"/><path class="d" d="M21.03,60.14c-3.09,.08-5.97-.2-8.67-1.38-3.86-1.69-4.95-4.76-3.11-8.58,1.06-2.2,3.11-4.63,5-5.78,1.19,5.72,3.34,10.96,6.77,15.74Z"/><path class="d" d="M83.71,19.19c3.01,.27,5.51,.75,7.73,2.18,2.04,1.31,2.94,3.19,2.43,5.59-.7,3.31-2.89,5.61-5.35,7.82-.64-5.43-2.22-10.47-4.81-15.59Z"/></g></g></svg>