<?xml version="1.0" encoding="UTF-8"?><svg xmlns="http://www.w3.org/2000/svg" viewBox="0 0 96.42 96.17"><defs><style>.d{fill:#fff;}</style></defs><g id="a"/><g id="b"><g id="c"><path d="M67.9,11.14c2.16-.59,4.11-.98,5.95-1.67,2.55-.95,5.27,.88,5,3.75-.14,1.44-.04,2.91-.03,4.36,0,.58,.08,1.16,.13,1.96,1.8,.12,3.5,.24,5.2,.35,.66,.04,1.33,0,1.98,.13,2.02,.4,3.26,2.32,2.68,4.32-.62,2.15-1.4,4.26-2.16,6.54,.47,.28,.87,.6,1.33,.79,1.46,.62,2.95,1.17,4.41,1.79,2.86,1.22,3.46,3.52,1.56,6.04-1.22,1.62-2.48,3.22-3.81,4.96,1.07,.96,1.99,1.79,2.92,2.62,.54,.48,1.11,.95,1.65,1.43,2.42,2.17,2.27,4.58-.39,6.37-1.15,.77-2.33,1.51-3.48,2.28-.49,.33-.95,.69-1.53,1.12,.22,.53,.37,1.02,.61,1.46,.71,1.27,1.47,2.51,2.18,3.78,1.68,3,.81,5.1-2.47,5.98-1.4,.38-2.81,.73-4.22,1.11-.49,.14-.97,.34-1.6,.57,.13,.91,.23,1.75,.38,2.58,.23,1.3,.51,2.59,.72,3.9,.38,2.37-1.12,4.17-3.54,4.15-1.45,0-2.9-.17-4.35-.26-.78-.05-1.56-.09-2.57-.14-.28,1.73-.55,3.33-.8,4.94-.09,.59-.13,1.19-.27,1.76-.58,2.41-2.47,3.49-4.81,2.66-1.55-.55-3.04-1.29-4.56-1.93-.48-.2-.98-.36-1.61-.59-.31,.45-.64,.84-.88,1.28-.72,1.34-1.38,2.71-2.1,4.05-1.5,2.8-3.76,3.24-6.13,1.18-1.05-.91-2.05-1.88-3.08-2.8-.48-.43-1-.82-1.64-1.34-.86,.8-1.63,1.5-2.39,2.21-.82,.77-1.59,1.59-2.44,2.32-1.92,1.65-4.25,1.29-5.57-.87-.79-1.3-1.46-2.66-2.2-3.99-.32-.57-.67-1.12-1.1-1.84-1.1,.49-2.11,.93-3.12,1.38-.84,.38-1.71,.72-2.52,1.16-2.64,1.45-5.28-.24-5.54-2.93-.15-1.57-.5-3.13-.78-4.69-.07-.38-.21-.74-.39-1.37-1.45,.11-2.88,.21-4.3,.33-.72,.06-1.44,.21-2.17,.22-2.76,.07-4.22-1.47-3.93-4.19,.15-1.44,.46-2.87,.68-4.31,.1-.64,.16-1.29,.26-2.1-.62-.21-1.15-.42-1.7-.56-1.54-.39-3.09-.72-4.62-1.13-2.66-.72-3.62-2.89-2.38-5.37,.65-1.3,1.4-2.55,2.08-3.83,.3-.57,.56-1.16,.9-1.89-1.03-.68-1.96-1.29-2.89-1.89-.83-.54-1.69-1.04-2.51-1.6-2.41-1.63-2.61-3.94-.52-5.96,1.38-1.33,2.81-2.61,4.21-3.92,.09-.08,.12-.23,.29-.56-.31-.43-.65-.97-1.05-1.47-.98-1.25-2.03-2.44-2.96-3.72-1.51-2.06-.96-4.31,1.33-5.44,1.36-.67,2.78-1.22,4.17-1.83,.59-.26,1.17-.54,1.96-.91-.57-1.61-1.09-3.09-1.62-4.56-.13-.37-.28-.74-.41-1.12-1.15-3.31,.15-5.25,3.66-5.49,1.45-.1,2.9-.21,4.35-.35,1.32-.13,1.47-.27,1.48-1.57,0-1.59,.02-3.18-.12-4.76-.26-3.04,2.25-4.88,5.01-4,1.87,.6,3.8,1.01,5.86,1.54,.28-.66,.53-1.18,.71-1.72,.49-1.51,.91-3.04,1.44-4.53,.94-2.62,3.16-3.41,5.53-1.97,1.24,.75,2.42,1.61,3.64,2.4,.54,.36,1.11,.68,1.84,1.13,.57-.71,1.11-1.35,1.61-2.02,.8-1.05,1.54-2.15,2.37-3.18,1.74-2.18,4.11-2.21,5.87-.07,.93,1.12,1.77,2.31,2.66,3.45,.4,.51,.82,1,1.35,1.64,.65-.38,1.21-.68,1.74-1.04,1.32-.89,2.58-1.86,3.93-2.69,2.14-1.32,4.41-.54,5.33,1.81,.55,1.41,.98,2.87,1.48,4.31,.21,.61,.46,1.21,.78,2.06Zm7.95,.95c-.85,.17-1.48,.27-2.1,.43-1.34,.35-2.67,.76-4.01,1.11-2.67,.71-4.11-.06-5.05-2.69-.44-1.25-.84-2.51-1.27-3.75-.23-.66-.51-1.31-.86-2.2-.75,.48-1.3,.81-1.83,1.17-1.31,.89-2.58,1.85-3.93,2.69-1.76,1.1-3.44,.83-4.78-.74-.9-1.06-1.69-2.2-2.55-3.29-.52-.66-1.07-1.29-1.75-2.11-.56,.67-1,1.14-1.38,1.65-.92,1.21-1.77,2.47-2.72,3.66-1.42,1.8-3.13,2.1-5.06,.91-1.29-.8-2.53-1.68-3.81-2.51-.53-.35-1.1-.64-1.8-1.05-.29,.67-.52,1.13-.69,1.61-.52,1.57-.98,3.15-1.53,4.71-.76,2.17-2.25,3-4.49,2.5-1.61-.36-3.19-.84-4.8-1.24-.49-.12-1-.15-1.7-.25-.04,.83-.09,1.47-.09,2.12,0,1.45,.06,2.91,.06,4.36,0,2.54-1.08,3.74-3.64,4-1.38,.14-2.77,.17-4.15,.29-.69,.06-1.38,.23-2.16,.37,.11,.52,.14,.85,.24,1.14,.53,1.49,1.08,2.98,1.62,4.47,1.06,2.97,.45,4.44-2.4,5.69-1.39,.61-2.8,1.18-4.18,1.81-.38,.18-.69,.52-1.11,.84,.38,.55,.66,.99,.98,1.39,.94,1.19,1.92,2.36,2.85,3.57,1.57,2.03,1.46,3.66-.37,5.41-1.05,1.01-2.15,1.96-3.22,2.95-.46,.43-.88,.91-1.47,1.52,.73,.51,1.25,.9,1.79,1.25,1.11,.72,2.24,1.4,3.35,2.12,2.52,1.63,2.9,3.15,1.46,5.84-.72,1.34-1.47,2.66-2.17,4.01-.19,.38-.24,.83-.37,1.32,.5,.18,.85,.34,1.22,.43,1.6,.4,3.21,.76,4.81,1.17,2.51,.64,3.47,2.14,3.03,4.67-.17,.98-.36,1.95-.51,2.93-.15,1.01-.26,2.03-.4,3.16,.56,.04,.87,.11,1.18,.08,1.78-.15,3.55-.37,5.33-.48,2.43-.16,3.74,.86,4.2,3.21,.29,1.49,.5,3,.78,4.49,.11,.61,.33,1.19,.54,1.9,.74-.28,1.23-.44,1.71-.65,1.39-.62,2.75-1.29,4.15-1.89,2.3-.98,3.91-.43,5.16,1.76,.79,1.38,1.52,2.79,2.3,4.17,.25,.44,.59,.82,.98,1.34,.62-.55,1.12-.97,1.6-1.41,1.06-1,2.08-2.03,3.16-3.01,1.73-1.56,3.37-1.59,5.14-.1,1.16,.98,2.25,2.05,3.38,3.06,.47,.42,.99,.79,1.4,1.12,.33-.17,.5-.2,.55-.29,.73-1.33,1.53-2.63,2.15-4.01,1.35-3.02,2.95-4.45,6.94-2.45,1.45,.73,2.99,1.29,4.62,1.99,.21-.67,.4-1.08,.47-1.51,.25-1.56,.47-3.14,.7-4.7,.37-2.53,1.62-3.61,4.13-3.52,1.45,.05,2.9,.22,4.35,.3,.69,.04,1.38,0,2.26,0-.1-.85-.14-1.43-.25-2-.26-1.43-.57-2.85-.83-4.28-.45-2.43,.49-3.94,2.9-4.61,1.65-.46,3.33-.84,4.99-1.29,.4-.11,.75-.41,1.23-.68-.37-.71-.66-1.3-.98-1.86-.72-1.26-1.5-2.5-2.17-3.78-1.02-1.94-.65-3.58,1.12-4.86,1.34-.97,2.76-1.82,4.13-2.75,.47-.32,.89-.71,1.67-1.33-.69-.54-1.21-.92-1.71-1.33-1.16-.99-2.33-1.96-3.44-3-1.56-1.47-1.73-3.24-.48-4.97,1.01-1.39,2.12-2.71,3.15-4.08,.3-.39,.48-.87,.8-1.46-.76-.35-1.33-.64-1.93-.89-1.28-.53-2.58-1.02-3.86-1.57-2.31-1-3.03-2.54-2.29-4.94,.43-1.39,.96-2.74,1.42-4.12,.2-.6,.35-1.23,.58-2.06-.91-.14-1.6-.29-2.3-.33-1.32-.08-2.64-.08-3.96-.16-2.66-.16-3.83-1.38-3.87-4-.02-1.52,.02-3.04,0-4.56,0-.56-.1-1.13-.17-1.9Z"/><path class="d" d="M75.85,12.08c.07,.78,.16,1.34,.17,1.9,.02,1.52-.02,3.04,0,4.56,.04,2.62,1.21,3.84,3.87,4,1.32,.08,2.64,.08,3.96,.16,.7,.04,1.39,.2,2.3,.33-.23,.84-.38,1.46-.58,2.06-.46,1.38-.99,2.73-1.42,4.12-.74,2.4-.02,3.94,2.29,4.94,1.27,.55,2.57,1.03,3.86,1.57,.6,.25,1.17,.54,1.93,.89-.32,.59-.51,1.07-.8,1.46-1.03,1.37-2.14,2.69-3.15,4.08-1.25,1.73-1.08,3.51,.48,4.97,1.11,1.04,2.28,2.01,3.44,3,.49,.42,1.02,.8,1.71,1.33-.78,.63-1.2,1.01-1.67,1.33-1.37,.93-2.79,1.78-4.13,2.75-1.77,1.28-2.14,2.92-1.12,4.86,.68,1.29,1.46,2.52,2.17,3.78,.32,.56,.61,1.15,.98,1.86-.48,.27-.83,.56-1.23,.68-1.65,.46-3.33,.84-4.99,1.29-2.41,.67-3.35,2.18-2.9,4.61,.26,1.43,.57,2.85,.83,4.28,.1,.57,.14,1.15,.25,2-.88,0-1.57,.03-2.26,0-1.45-.08-2.9-.25-4.35-.3-2.52-.09-3.76,.99-4.13,3.52-.23,1.57-.44,3.14-.7,4.7-.07,.43-.26,.84-.47,1.51-1.63-.7-3.17-1.26-4.62-1.99-3.99-2-5.59-.57-6.94,2.45-.62,1.38-1.42,2.68-2.15,4.01-.05,.09-.22,.12-.55,.29-.42-.33-.93-.7-1.4-1.12-1.14-1.01-2.22-2.08-3.38-3.06-1.77-1.5-3.4-1.46-5.14,.1-1.08,.97-2.1,2.01-3.16,3.01-.47,.45-.98,.86-1.6,1.41-.39-.52-.73-.9-.98-1.34-.78-1.38-1.51-2.79-2.3-4.17-1.25-2.19-2.85-2.74-5.16-1.76-1.4,.6-2.76,1.27-4.15,1.89-.47,.21-.97,.37-1.71,.65-.2-.71-.42-1.29-.54-1.9-.28-1.49-.49-3-.78-4.49-.46-2.35-1.77-3.37-4.2-3.21-1.78,.12-3.55,.33-5.33,.48-.31,.03-.63-.04-1.18-.08,.14-1.13,.25-2.15,.4-3.16,.15-.98,.33-1.95,.51-2.93,.45-2.53-.52-4.03-3.03-4.67-1.6-.41-3.21-.77-4.81-1.17-.37-.09-.73-.25-1.22-.43,.13-.49,.18-.94,.37-1.32,.7-1.35,1.45-2.67,2.17-4.01,1.44-2.69,1.06-4.21-1.46-5.84-1.11-.72-2.24-1.41-3.35-2.12-.54-.35-1.06-.74-1.79-1.25,.59-.61,1.01-1.09,1.47-1.52,1.06-.99,2.17-1.94,3.22-2.95,1.83-1.75,1.94-3.38,.37-5.41-.93-1.2-1.9-2.37-2.85-3.57-.32-.41-.6-.85-.98-1.39,.42-.32,.72-.66,1.11-.84,1.38-.63,2.79-1.2,4.18-1.81,2.85-1.25,3.47-2.71,2.4-5.69-.53-1.49-1.09-2.98-1.62-4.47-.1-.3-.13-.62-.24-1.14,.78-.14,1.46-.31,2.16-.37,1.38-.13,2.77-.15,4.15-.29,2.57-.26,3.64-1.46,3.64-4,0-1.45-.05-2.91-.06-4.36,0-.64,.05-1.29,.09-2.12,.7,.1,1.21,.13,1.7,.25,1.6,.4,3.19,.88,4.8,1.24,2.25,.5,3.73-.33,4.49-2.5,.55-1.56,1.01-3.14,1.53-4.71,.16-.48,.4-.94,.69-1.61,.7,.41,1.26,.7,1.8,1.05,1.27,.83,2.51,1.72,3.81,2.51,1.94,1.19,3.64,.88,5.06-.91,.94-1.19,1.8-2.45,2.72-3.66,.38-.51,.82-.98,1.38-1.65,.68,.82,1.23,1.45,1.75,2.11,.86,1.09,1.65,2.24,2.55,3.29,1.34,1.57,3.02,1.84,4.78,.74,1.34-.84,2.62-1.8,3.93-2.69,.53-.36,1.07-.69,1.83-1.17,.35,.9,.63,1.54,.86,2.2,.44,1.25,.83,2.51,1.27,3.75,.93,2.63,2.38,3.4,5.05,2.69,1.34-.36,2.67-.76,4.01-1.11,.62-.16,1.25-.26,2.1-.43ZM10.88,47.93c-.08,20.71,16.47,37.4,37.17,37.49,20.73,.09,37.37-16.44,37.56-37.11,.19-20.69-16.78-37.64-37.29-37.6-20.73,.04-37.37,16.51-37.45,37.23Z"/><path d="M10.88,47.93c.08-20.72,16.72-37.19,37.45-37.23,20.51-.04,37.48,16.91,37.29,37.6-.19,20.67-16.84,37.2-37.56,37.11-20.7-.09-37.25-16.77-37.17-37.49Zm2.82,.03c-.04,18.97,15.45,34.59,34.33,34.64,19.1,.04,34.72-15.42,34.75-34.43,.03-18.96-15.44-34.57-34.34-34.65-19.07-.08-34.7,15.42-34.74,34.43Z"/><path class="d" d="M13.71,47.96c.04-19.02,15.67-34.51,34.74-34.43,18.91,.08,34.38,15.68,34.34,34.65-.04,19-15.65,34.47-34.75,34.43-18.89-.04-34.37-15.67-34.33-34.64Zm32.65-11.97c-1.19,.28-2.17,.43-3.08,.75-.71,.25-1.2,.8-1.12,1.67,.1,1.18,.16,2.36,.27,3.53,.17,1.88,1.24,2.76,3.06,2.39,2.14-.43,3.92-1.54,5.22-3.3,1.08-1.45,.81-2.98-.79-3.83-1.13-.6-2.44-.84-3.55-1.21Zm26.04,7.46c-.12-.54-.27-1.59-.61-2.57-.48-1.41-1.39-2.53-2.78-3.19-.76-.36-1.51-.46-2.19,.19-1,.95-2.03,1.87-2.98,2.88-1.06,1.12-1.01,1.81,.15,2.83,1.68,1.46,3.62,2.39,5.84,2.66,1.86,.22,2.56-.4,2.56-2.79Zm-43.46,12.41c-.04-.78-.05-1.43-.11-2.09-.07-.82-.52-1.45-1.35-1.44-1.51,.03-3.13-1.61-4.46-.14-1.29,1.43-1.95,3.3-1.67,5.31,.07,.53,.4,1.2,.83,1.48,1.08,.73,2.24,1.4,3.45,1.88,1.39,.55,2.32,.03,2.69-1.43,.31-1.2,.43-2.46,.61-3.59Zm21.89,23.94c.39-.16,1.33-.29,1.92-.82,1.32-1.17,2.6-2.44,3.64-3.86,1.01-1.37,.34-2.45-1.38-2.41-2.34,.06-4.55,.72-6.61,1.83-.45,.24-.84,.65-1.16,1.05-.55,.69-.58,1.46-.09,2.21,.76,1.16,1.76,1.96,3.68,2Zm-6.84-18.34l-.1,.02c.15,.91,.21,1.84,.46,2.72,.35,1.22,1.18,1.63,2.27,1.02,2.07-1.15,3.74-2.73,4.53-5.04,.5-1.48-.11-2.56-1.61-3.09-3.1-1.1-5.44,.5-5.54,3.78,0,.2,0,.4,0,.59Zm-13.77-24.54c.21-.02,.75-.02,1.26-.12,1.83-.34,2.6-1.34,2.51-3.19-.1-1.98-2.47-4.18-4.41-4.09-.87,.04-1.56,.44-1.88,1.24-.36,.91-.71,1.86-.84,2.82-.33,2.54,.48,3.38,3.36,3.34Zm38.86,33.63c.84-3.16-.58-6.5-3.22-7.86-1.35-.7-2.32-.31-2.36,1.15-.04,1.69,.09,3.42,.43,5.07,.34,1.64,1.39,2.16,3.11,1.96,.65-.08,1.29-.2,2.03-.32Zm12.54-20.38c.03-.96-.32-1.38-1.2-1.43-1.99-.12-4.19,1.85-4.3,3.86-.08,1.45,.68,2.1,2.07,1.77,1.59-.39,3.39-2.57,3.44-4.19Zm-19.25-28.69c-.74,.26-1.27,.36-1.7,.62-1.2,.73-1.19,1.78,0,2.57,.6,.4,1.21,.79,1.85,1.12,1.22,.63,2.96,.15,3.57-1.04,.16-.31,.09-1.04-.13-1.19-1.18-.78-2.45-1.44-3.6-2.08Zm-25.66,52.55c-.05-.14-.1-.66-.38-.96-.97-1.02-2.13-1.78-3.57-1.93-1.06-.11-1.49,.55-.92,1.48,.81,1.33,1.96,2.31,3.44,2.83,1.05,.37,1.43,.05,1.43-1.42Zm7.07-52.05c-.32-.99-.83-1.83-2-1.83-1.37,0-2.8-.07-3.91,.98-.48,.46-.34,.95,.19,1.32,1.34,.93,4.35,.69,5.72-.47Z"/><path d="M46.36,35.99c1.11,.36,2.43,.61,3.55,1.21,1.61,.85,1.87,2.38,.79,3.83-1.3,1.76-3.08,2.87-5.22,3.3-1.82,.37-2.89-.51-3.06-2.39-.11-1.18-.17-2.35-.27-3.53-.07-.87,.42-1.42,1.12-1.67,.92-.32,1.89-.47,3.08-.75Z"/><path d="M72.4,43.46c0,2.38-.7,3.01-2.56,2.79-2.23-.27-4.17-1.2-5.84-2.66-1.17-1.01-1.21-1.7-.15-2.83,.94-1,1.98-1.92,2.98-2.88,.68-.65,1.43-.55,2.19-.19,1.39,.66,2.29,1.78,2.78,3.19,.34,.99,.49,2.04,.61,2.57Z"/><path d="M28.94,55.87c-.18,1.13-.3,2.38-.61,3.59-.38,1.46-1.31,1.97-2.69,1.43-1.21-.48-2.37-1.15-3.45-1.88-.43-.29-.76-.95-.83-1.48-.28-2.01,.38-3.89,1.67-5.31,1.33-1.47,2.95,.16,4.46,.14,.83-.01,1.27,.62,1.35,1.44,.06,.65,.07,1.31,.11,2.09Z"/><path d="M50.83,79.81c-1.93-.04-2.93-.83-3.68-2-.49-.75-.46-1.52,.09-2.21,.32-.4,.71-.81,1.16-1.05,2.06-1.11,4.27-1.78,6.61-1.83,1.72-.04,2.38,1.03,1.38,2.41-1.04,1.42-2.32,2.69-3.64,3.86-.59,.53-1.53,.66-1.92,.82Z"/><path d="M43.98,61.47c0-.2,0-.4,0-.59,.1-3.28,2.44-4.88,5.54-3.78,1.5,.53,2.11,1.62,1.61,3.09-.78,2.31-2.46,3.89-4.53,5.04-1.09,.61-1.92,.2-2.27-1.02-.25-.88-.31-1.81-.46-2.72l.1-.02Z"/><path d="M30.21,36.93c-2.88,.04-3.69-.8-3.36-3.34,.13-.96,.47-1.91,.84-2.82,.32-.79,1.01-1.2,1.88-1.24,1.94-.09,4.32,2.11,4.41,4.09,.09,1.85-.68,2.85-2.51,3.19-.52,.1-1.05,.1-1.26,.12Z"/><path d="M69.07,70.56c-.74,.12-1.38,.25-2.03,.32-1.73,.2-2.78-.32-3.11-1.96-.34-1.65-.47-3.38-.43-5.07,.04-1.46,1.01-1.85,2.36-1.15,2.64,1.36,4.05,4.7,3.22,7.86Z"/><path d="M81.61,50.19c-.05,1.62-1.84,3.8-3.44,4.19-1.38,.34-2.15-.32-2.07-1.77,.12-2,2.32-3.98,4.3-3.86,.88,.05,1.23,.48,1.2,1.43Z"/><path d="M62.36,21.5c1.15,.65,2.41,1.3,3.6,2.08,.22,.15,.29,.88,.13,1.19-.61,1.19-2.35,1.67-3.57,1.04-.64-.33-1.25-.73-1.85-1.12-1.19-.79-1.21-1.85,0-2.57,.43-.26,.97-.36,1.7-.62Z"/><path d="M36.7,74.05c0,1.48-.38,1.8-1.43,1.42-1.48-.52-2.63-1.5-3.44-2.83-.56-.93-.14-1.6,.92-1.48,1.43,.15,2.6,.91,3.57,1.93,.28,.3,.33,.82,.38,.96Z"/><path d="M43.77,22c-1.37,1.16-4.38,1.4-5.72,.47-.53-.36-.67-.86-.19-1.32,1.1-1.05,2.54-.98,3.91-.98,1.17,0,1.69,.84,2,1.83Z"/></g></g></svg>