<?xml version="1.0" encoding="UTF-8"?><svg xmlns="http://www.w3.org/2000/svg" viewBox="0 0 74.75 74.74"><defs><style>.f{fill:#fff;}</style></defs><g id="a"/><g id="b"><g id="c"><g id="d"><g id="e"><path d="M37.3,74.74c-20.67-.03-37.3-16.76-37.3-37.38S17.09-.1,37.55,0c20.62,.09,37.34,17.13,37.2,37.51-.15,20.65-16.75,37.26-37.45,37.23Zm1.49-2.6c1.96-7.96,1.86-63.71-.17-69.68-.71,0-1.49-.04-2.27,0-3.44,.2-6.81,.78-10.12,1.82-1.4,.44-2.01,1.19-2.28,2.57-1.54,8-2.64,16.06-2.78,24.2-.11,6.74-.04,13.5,.43,20.21,.4,5.65,1.5,11.25,2.26,16.88,.16,1.21,.79,1.88,1.95,2.17,1.99,.49,3.94,1.16,5.95,1.5,2.32,.39,4.68,.76,7.02,.32h0ZM42.05,2.84c.31,7.91,.71,15.55,.86,23.2,.15,7.6,.15,15.2,0,22.8-.14,7.64-.53,15.27-.81,22.99,.58-.04,.97-.04,1.35-.11,3.08-.53,5.99-1.56,8.84-2.83,1.12-.5,1.61-1.21,1.75-2.36,.51-4,1.16-7.98,1.56-11.98,1.28-12.65,1.56-25.33,.8-38.02-.15-2.57-.44-5.13-.63-7.7-.05-.7-.22-1.25-.89-1.63-3.94-2.25-8.12-3.77-12.85-4.37h.01ZM20.79,6.96c-3.61,1.69-6.54,4.1-9.17,6.9-.83,.89-1.39,1.87-1.71,3.06-1.23,4.54-2.04,9.14-2.44,13.83-.78,9.1-.12,18.08,2.2,26.92,.22,.86,.7,1.72,1.27,2.41,2.34,2.82,5.11,5.15,8.24,7.06,.44,.27,.92,.45,1.7,.83-3.69-20.49-3.66-40.71-.08-61.01h-.01Zm36.55,58.69c1.93-.99,3.39-2.39,4.87-3.79,.94-.89,1.52-1.93,1.86-3.18,2.24-8.09,3.06-16.34,2.69-24.71-.28-6.35-1.29-12.6-3.17-18.69-.73-2.37-2.63-3.58-4.58-4.86,.64,9.23,.77,18.39,.56,27.55-.21,9.24-1.11,18.42-2.23,27.68Zm10.38-45.05c.48,3.81,1.1,7.38,1.33,10.98,.24,3.68,.24,7.39,.07,11.07-.16,3.53-.68,7.04-1.07,10.91,5.69-9.34,5.54-23.82-.32-32.95h-.01ZM5.85,23.46c-4.28,5.35-4.31,22.7-.15,27.49-1.47-9.18-1.34-18.17,.15-27.49Z"/><path class="f" d="M38.79,72.14c-2.34,.43-4.7,.07-7.02-.32-2.01-.34-3.96-1.01-5.95-1.5-1.16-.29-1.78-.95-1.95-2.17-.76-5.63-1.86-11.23-2.26-16.88-.47-6.72-.55-13.48-.43-20.21,.14-8.14,1.24-16.2,2.78-24.2,.27-1.38,.88-2.13,2.28-2.57,3.31-1.04,6.67-1.62,10.12-1.82,.78-.04,1.56,0,2.27,0,2.03,5.97,2.14,61.72,.17,69.68h0Z"/><path class="f" d="M42.05,2.84c4.73,.61,8.91,2.12,12.85,4.37,.67,.38,.84,.93,.89,1.63,.19,2.57,.48,5.13,.63,7.7,.76,12.69,.48,25.37-.8,38.02-.41,4.01-1.06,7.99-1.56,11.98-.15,1.15-.63,1.86-1.75,2.36-2.85,1.27-5.77,2.29-8.84,2.83-.38,.07-.77,.06-1.35,.11,.28-7.72,.67-15.36,.81-22.99,.14-7.6,.14-15.2,0-22.8-.15-7.65-.56-15.29-.86-23.2h-.01Z"/><path class="f" d="M20.79,6.95c-3.58,20.31-3.61,40.53,.08,61.01-.78-.38-1.26-.57-1.7-.83-3.13-1.91-5.9-4.25-8.24-7.06-.57-.69-1.05-1.55-1.27-2.41-2.32-8.84-2.97-17.82-2.2-26.92,.4-4.69,1.21-9.29,2.44-13.83,.32-1.19,.88-2.17,1.71-3.06,2.64-2.8,5.56-5.21,9.17-6.9h.01Z"/><path class="f" d="M57.34,65.65c1.13-9.25,2.02-18.44,2.23-27.68,.21-9.16,.09-18.32-.56-27.55,1.95,1.28,3.85,2.49,4.58,4.86,1.88,6.09,2.88,12.34,3.17,18.69,.37,8.37-.44,16.61-2.69,24.71-.35,1.25-.92,2.29-1.86,3.18-1.48,1.4-2.94,2.79-4.87,3.79Z"/><path class="f" d="M67.72,20.6c5.86,9.13,6.01,23.61,.32,32.95,.4-3.87,.91-7.38,1.07-10.91,.17-3.68,.17-7.39-.07-11.07-.23-3.6-.85-7.17-1.33-10.98h.01Z"/><path class="f" d="M5.85,23.46c-1.49,9.32-1.62,18.31-.15,27.49-4.16-4.79-4.13-22.14,.15-27.49Z"/></g></g></g></g></svg>