<?xml version="1.0" encoding="UTF-8"?><svg xmlns="http://www.w3.org/2000/svg" viewBox="0 0 74.78 74.73"><defs><style>.d{fill:#fff;}</style></defs><g id="a"/><g id="b"><g id="c"><path d="M0,37.29C-.06,16.82,16.68,.14,37.22,0c20.65-.14,37.46,16.78,37.56,37.15,.1,20.74-16.87,37.64-37.33,37.58C16.66,74.68,.06,58.14,0,37.29Zm17.13,28.28c13.72,10.78,34.24,7.45,43.12-2.33-1.61-.67-3.1-.77-5.42-.35-3.26,.59-6.52,1.12-9.85,.77-.42-.04-.82-.18-1.33-.3,1.1-1.17,1.46-1.51,3.33-1.72,2.82-.32,5.53-1.2,8.27-1.82,2.67-.6,5.27-1.6,8.05-1.89,.51-.05,1-.32,1.51-.47,1.06-.31,1.82-.95,2.39-1.93,1.65-2.81,2.97-5.75,3.82-8.9,.13-.49,.17-1.01,.27-1.63-3.73-1.22-7.42-1.75-11.2-1.09-3.16,.56-6.27,.62-9.46,.28-2.74-.29-5.57-.44-8.29-.1-3.55,.45-7.06,.98-10.64,.49-.64-.09-1.32,.04-1.97,.14-4.8,.72-9.59,.73-14.42,.2-3.08-.34-6.19-.3-9.3-.37-.83-.02-1.67,.19-2.65,.31,.99,4.79,2.89,8.94,5.65,12.7,.3,.41,1.01,.73,1.54,.74,2.23,.06,4.49,.13,6.7-.1,1.54-.16,3.02-.35,4.49,.18,2.49,.89,5.01,.98,7.62,.68,2.91-.34,5.81-.09,8.67,.53,.81,.18,1.65,.38,2.1,1.44-.55,.02-.95,.12-1.3,.04-1.67-.36-3.26,.01-4.88,.38-1.8,.4-3.65,.57-5.47,.89-1.95,.34-3.92,.62-5.81,1.16-1.86,.53-3.64,1.35-5.54,2.08ZM3.17,30.89c1.63,.95,3.25,1.07,4.9,.81,1.17-.18,2.34-.46,3.48-.78,3.02-.86,6.05-1.15,9.21-.81,3.54,.39,7.12,.58,10.68,.63,2.16,.03,4.4-.09,6.48-.61,3.7-.93,7.3-.99,10.94,.11,3.68,1.11,7.41,1.11,11.19,.59,3.27-.45,6.56-.72,9.84-1.08,.43-.05,.85-.15,1.43-.26-.56-2.75-1.54-5.18-2.63-7.57-.44-.96-1.11-1.44-2.1-1.55-1.9-.22-3.8-.41-5.7-.62-2.1-.24-4.21-.37-6.28-.77-1.92-.37-3.77-.57-5.68-.01-.69,.2-1.42,.33-2.14,.37-.96,.06-1.92-.02-2.73-.99,.53-.31,.89-.67,1.3-.73,1.49-.25,2.99-.44,4.49-.57,1.9-.15,3.82-.11,5.71-.34,2.69-.32,5.35-.8,8.02-1.24,.16-.03,.28-.22,.42-.33C52.41,.08,29.82-.8,18.1,8.73c.59-.03,1.02-.06,1.45-.07,2.83-.04,5.69-.3,8.5-.05,6.7,.58,13.35,1.89,20.12,1.46,.71-.05,1.48-.06,1.89,.84-.28,1.11-1.28,1.43-2.2,1.7-4.52,1.31-9.12,2.31-13.85,1.98-2.67-.19-5.26-.07-7.88,.36-2.68,.44-5.37,.44-8.08-.11-1.73-.35-3.54-.3-5.32-.42-1.22-.08-2.08,.46-2.83,1.45-2.95,3.89-5.14,8.15-6.31,12.9-.17,.69-.28,1.39-.42,2.11Z"/><path class="d" d="M17.13,65.57c1.9-.73,3.68-1.55,5.54-2.08,1.89-.54,3.87-.81,5.81-1.16,1.82-.32,3.67-.49,5.47-.89,1.62-.37,3.21-.74,4.88-.38,.36,.08,.75-.02,1.3-.04-.45-1.06-1.29-1.26-2.1-1.44-2.86-.63-5.76-.87-8.67-.53-2.61,.3-5.13,.21-7.62-.68-1.47-.52-2.96-.34-4.49-.18-2.22,.23-4.47,.15-6.7,.1-.53-.01-1.23-.33-1.54-.74-2.76-3.76-4.67-7.91-5.65-12.7,.98-.12,1.82-.33,2.65-.31,3.1,.07,6.22,.03,9.3,.37,4.83,.53,9.62,.53,14.42-.2,.65-.1,1.33-.23,1.97-.14,3.59,.5,7.09-.04,10.64-.49,2.72-.34,5.55-.19,8.29,.1,3.19,.34,6.31,.28,9.46-.28,3.77-.67,7.47-.13,11.2,1.09-.1,.63-.14,1.14-.27,1.63-.84,3.15-2.17,6.09-3.82,8.9-.57,.97-1.33,1.61-2.39,1.93-.51,.15-1,.41-1.51,.47-2.77,.29-5.37,1.29-8.05,1.89-2.74,.62-5.44,1.5-8.27,1.82-1.86,.21-2.23,.54-3.33,1.72,.5,.12,.91,.25,1.33,.3,3.33,.35,6.59-.18,9.85-.77,2.33-.42,3.82-.32,5.42,.35-8.88,9.78-29.4,13.11-43.12,2.33Z"/><path class="d" d="M3.17,30.89c.14-.72,.25-1.42,.42-2.11,1.17-4.76,3.36-9.01,6.31-12.9,.75-.99,1.61-1.53,2.83-1.45,1.78,.11,3.59,.07,5.32,.42,2.71,.54,5.4,.55,8.08,.11,2.62-.43,5.21-.55,7.88-.36,4.73,.33,9.33-.67,13.85-1.98,.91-.26,1.91-.59,2.2-1.7-.41-.91-1.17-.89-1.89-.84-6.78,.44-13.42-.88-20.12-1.46-2.81-.24-5.66,.02-8.5,.05-.43,0-.87,.04-1.45,.07C29.82-.8,52.41,.08,64.02,15.14c-.14,.11-.27,.31-.42,.33-2.67,.43-5.34,.92-8.02,1.24-1.89,.23-3.81,.18-5.71,.34-1.5,.12-3,.32-4.49,.57-.41,.07-.77,.42-1.3,.73,.81,.97,1.77,1.05,2.73,.99,.72-.04,1.45-.17,2.14-.37,1.9-.56,3.76-.36,5.68,.01,2.06,.4,4.18,.53,6.28,.77,1.9,.21,3.8,.4,5.7,.62,.98,.11,1.65,.59,2.1,1.55,1.1,2.4,2.07,4.82,2.63,7.57-.58,.11-1.01,.21-1.43,.26-3.28,.36-6.57,.63-9.84,1.08-3.78,.52-7.51,.52-11.19-.59-3.64-1.1-7.24-1.04-10.94-.11-2.08,.52-4.32,.65-6.48,.61-3.56-.05-7.14-.25-10.68-.63-3.15-.35-6.18-.06-9.21,.81-1.14,.33-2.31,.6-3.48,.78-1.65,.26-3.27,.14-4.9-.81Z"/></g></g></svg>