<?xml version="1.0" encoding="UTF-8"?><svg xmlns="http://www.w3.org/2000/svg" viewBox="0 0 198.03 55.35"><g id="a"/><g id="b"><g id="c"><g><path d="M178.74,46.64c-.85-2.62-2.55-.65-3.46-2.06,.53-1.6,1.82-.75,2.5-2,.47-1.33-.68-1.43-.8-2.4,.07-1.63,1.61-1.17,1.69-3.21,.09-2.24,1.44-4.92-.09-6.54-2.04-2.16-3.94-5.61-6.89-4.28-1.14,.51-1.75,1.83-1.97,3.68-.36,3-.86,5.98-.42,9.06,.19,1.3,.06,2.34-.61,3.14-.5,.06-.9-.24-1-.96-.78-5.31-.3-10.55,1.14-15.3,.91-3,3.02-3.62,5.09-2.69,1.86,.84,3.66,1.94,4.9,4.31,.36-.35,.64-.46,.69-.69,.46-2.13-.13-5.41,1.68-6.08,2.14-.8,4.46-1.32,6.53,.96,2.35,2.59,3.77,6.48,5.74,10.09,2.78,4.38,4.38,9.27,4.49,15.16,.02,1.33,.46,3.09-.73,4.06-1.31,1.07-1.71-.36-2.13-1.8-.39-1.32-1.25-1.08-1.93-1.5,.38-.4-.2-.15,0-.29,2.94-2.08,2.47-5.76,1.23-8.78-1.91-4.66-4.07-9.14-6.62-13.04-1.72-2.64-3.84-2.51-6.1-1.57-.54,2.7-.92,5.37,.07,7.88,1.79,4.55,2.7,9.23,.98,14.81"/><path d="M133.14,27.12c-1.06,3.59-3.16,6.35-1.81,11.03,3.07,.02,6.15,.99,9.2,2.79,1.62,.95,3.53-1.71,5.48-1.77,.92-.03,1.73-.44,2,1.94-3.76,3.79-7.68,4.64-11.72,.94-1.45-1.32-2.83-1.19-4.15-.93-1.39,1.66,.59,4.82-1.59,5.96-1.75-1.51-1.62-4.63-1.44-6.92,.2-2.43-.2-4.73-.06-6.9,.28-4.56,2.01-8.57,4.27-11.24,1.78-2.1,2.97-4.48,4.01-7.43,2.15-6.12,4.93-7.7,9.18-5.87,.99,.43,1.73,.98,2.34,2.33,2.34,5.2,4.64,10.13,4.37,17.29-.19,4.94,1.15,9.93,1.06,15.06-.03,1.89,.98,3.2,1.6,4.77-2.61,1.04-2.71,.82-3.39-7.6-1.62,.14-2.4-.23-3.59-1.86,.86-1.48,2.64-.76,3.1-3.66-.86-2.31-.92-5.11-.66-8.42,.43-5.49-1.67-10.11-4.06-13.82-1.71-2.65-6.73-1.67-7.83,1.85-1.53,4.89-4.14,8.08-6.32,12.45Z"/><path d="M64.43,34.13c2.29,1.31,4.33,2.47,6.37,3.64v.99c-2.55,0-4.58,3.15-7.51,1.47-3-1.71-6.25-2.46-9.48-1.06-.91,.4-1.62-.41-2.37-.83-2.09,3.58,1.14,7.77-1.15,11.85-1.29-3.73-1.93-7.33-1.44-11.02,.81-6.04-.01-11.75-.88-17.5-.45-2.98-.39-5.37,2.16-6.23,.82,6.6,.25,13.2,.6,19.74,4.57-1.96,8.97-2.8,13.69-1.07Z"/><path d="M87.48,32.77c.03-2.66,.15-4.84,1.11-7.99,1.32,5.24-.21,9.97,.92,14.5,.75,.98,1.84-1.84,2.72,.06,.67,1.41-.61,2.4-.28,4.1,1.6-.12,3.16-.3,4.51-2.27,2.02-2.93,8.44-1.99,10.32,1.4,.11,.2,.05,.63,.08,.97-4.55,5.03-10.69-.16-15.08,5.47,0,2.5,1.6,3.55,1.42,6.35-1.8-2.21-3.2-4.69-4.62-6.9-1.08-1.66-2.2-4.25-1.3-7.68,.57-2.18,.16-5.01,.19-8.01Z"/><path d="M10.87,0c3.65,5.24,4.44,12.49,6.12,19.01,1.6,6.22,2.81,12.69,5.63,19.04,2.36-11.21,2.26-22.62,5.62-32.38-.6,12.23-2.97,23.76-4.48,35.23-1.99,.52-2.4-1.17-2.95-2.62-3.26-8.48-5.02-17.93-7.05-27.21-.47-2.15-.37-2.2-2.14-4.66-.7,5.89-.66,11.84-2.61,17.08-1.17-1.59-.61-3.27-.32-4.49,1.29-5.38,1.57-10.87,1.21-16.52-.06-.96-.11-2.09,.97-2.47Z"/><path d="M117.19,45.15c0,2.33,.91,4.4-.39,6.06-1,.36-1.41-.59-1.6-1.84-.64-4.3-2.33-8.28,.06-13,1.32-2.61,.46-6.87,.62-10.39,.13-2.98,.09-2.98,2.55-3.89-1.59,7.48-1.09,15.09-1.24,23.05Z"/><path d="M121.15,10.99c1.25,2.65,2.35,5.03,3.44,7.4l-.73,.97c-4.21-3.43-6.42-10.59-10.41-14.6,.56-2.81,2.49-1.92,3.23-4.48,1.64,3.97,2.97,7.2,4.46,10.7Z"/><path d="M2.79,21.22c1.32,3.87,2.54,7.38,3.8,11.01,1.79-1.69-.16-5.13,1.32-6.67,.33-.26,.59-.16,.58,.21-.04,3.03,1.17,7.3-1.2,8.54-2.57,1.36-2.66-3.49-3.52-5.89C1.91,23.19,.03,17.9,0,11.43c.9,3.15,1.8,6.29,2.79,9.79Z"/><path d="M34.65,42.61c-.81-7.51-1.89-14.72-.45-22.33,.48,.53,.76,.72,.75,.86-.43,6.56,.34,13.03,.58,19.54,.03,.94,.29,2.13-.88,1.93Z"/><path d="M89.65,22.77c-1.06-3.34-.67-6.96-1.05-11.6,2.56,3.54,2.72,6.96,1.05,11.6Z"/></g></g></g></svg>